<mxfile host="Electron" agent="Mozilla/5.0 (X11; Linux x86_64) AppleWebKit/537.36 (KHTML, like Gecko) draw.io/24.7.17 Chrome/128.0.6613.36 Electron/32.0.1 Safari/537.36" version="24.7.17">
  <diagram name="C4" id="1h6LSRbKM-raz4Y9u1qA">
    <mxGraphModel dx="3622" dy="3327" grid="1" gridSize="10" guides="1" tooltips="1" connect="1" arrows="1" fold="1" page="1" pageScale="1" pageWidth="827" pageHeight="1169" math="0" shadow="0">
      <root>
        <mxCell id="0" />
        <mxCell id="1" parent="0" />
        <mxCell id="MgXlGDydDEbSnXE4OkCF-2" value="" style="endArrow=none;dashed=1;html=1;dashPattern=1 3;strokeWidth=2;rounded=0;" edge="1" parent="1">
          <mxGeometry width="50" height="50" relative="1" as="geometry">
            <mxPoint x="1324.9999999999998" y="1321.5" as="sourcePoint" />
            <mxPoint x="1324.9999999999998" y="811.5" as="targetPoint" />
          </mxGeometry>
        </mxCell>
        <mxCell id="MgXlGDydDEbSnXE4OkCF-3" value="" style="endArrow=none;dashed=1;html=1;dashPattern=1 3;strokeWidth=2;rounded=0;" edge="1" parent="1">
          <mxGeometry width="50" height="50" relative="1" as="geometry">
            <mxPoint x="997" y="1322" as="sourcePoint" />
            <mxPoint x="997" y="812" as="targetPoint" />
          </mxGeometry>
        </mxCell>
        <mxCell id="MgXlGDydDEbSnXE4OkCF-4" style="rounded=0;orthogonalLoop=1;jettySize=auto;html=1;entryX=0.5;entryY=0;entryDx=0;entryDy=0;dashed=1;" edge="1" parent="1" source="MgXlGDydDEbSnXE4OkCF-7" target="MgXlGDydDEbSnXE4OkCF-11">
          <mxGeometry relative="1" as="geometry" />
        </mxCell>
        <mxCell id="MgXlGDydDEbSnXE4OkCF-5" value="Views account, friend with people,&lt;div&gt;comment on profiles.&lt;/div&gt;" style="edgeLabel;html=1;align=center;verticalAlign=middle;resizable=0;points=[];" vertex="1" connectable="0" parent="MgXlGDydDEbSnXE4OkCF-4">
          <mxGeometry x="-0.1508" y="-2" relative="1" as="geometry">
            <mxPoint x="56" as="offset" />
          </mxGeometry>
        </mxCell>
        <mxCell id="MgXlGDydDEbSnXE4OkCF-6" style="rounded=0;orthogonalLoop=1;jettySize=auto;html=1;dashed=1;entryX=0.5;entryY=0;entryDx=0;entryDy=0;" edge="1" parent="1" source="MgXlGDydDEbSnXE4OkCF-7" target="MgXlGDydDEbSnXE4OkCF-40">
          <mxGeometry relative="1" as="geometry" />
        </mxCell>
        <mxCell id="MgXlGDydDEbSnXE4OkCF-7" value="User" style="rounded=1;whiteSpace=wrap;html=1;absoluteArcSize=1;arcSize=14;strokeWidth=2;fillColor=#0050EF;strokeColor=#001DBC;fontColor=#ffffff;" vertex="1" parent="1">
          <mxGeometry x="-20" y="88" width="100" height="70" as="geometry" />
        </mxCell>
        <mxCell id="MgXlGDydDEbSnXE4OkCF-8" value="" style="verticalLabelPosition=bottom;verticalAlign=top;html=1;shape=mxgraph.flowchart.on-page_reference;fillColor=#0050ef;strokeColor=#001DBC;fontColor=#ffffff;" vertex="1" parent="1">
          <mxGeometry y="50" width="60" height="50" as="geometry" />
        </mxCell>
        <mxCell id="MgXlGDydDEbSnXE4OkCF-9" style="rounded=0;orthogonalLoop=1;jettySize=auto;html=1;entryX=0.5;entryY=0;entryDx=0;entryDy=0;dashed=1;" edge="1" parent="1" source="MgXlGDydDEbSnXE4OkCF-11" target="MgXlGDydDEbSnXE4OkCF-41">
          <mxGeometry relative="1" as="geometry" />
        </mxCell>
        <mxCell id="MgXlGDydDEbSnXE4OkCF-10" value="Makes API calls to&lt;div&gt;&lt;font style=&quot;font-size: 10px;&quot;&gt;[JSON/HTTPS]&lt;/font&gt;&lt;/div&gt;" style="edgeLabel;html=1;align=center;verticalAlign=middle;resizable=0;points=[];" vertex="1" connectable="0" parent="MgXlGDydDEbSnXE4OkCF-9">
          <mxGeometry x="-0.1116" y="-1" relative="1" as="geometry">
            <mxPoint x="39" y="5" as="offset" />
          </mxGeometry>
        </mxCell>
        <mxCell id="MgXlGDydDEbSnXE4OkCF-11" value="&lt;div style=&quot;font-size: 13px;&quot;&gt;&lt;span style=&quot;background-color: initial;&quot;&gt;&lt;b&gt;&lt;font style=&quot;font-size: 13px;&quot;&gt;Single page application&lt;/font&gt;&lt;/b&gt;&lt;/span&gt;&lt;/div&gt;&lt;div style=&quot;font-size: 11px;&quot;&gt;&lt;font style=&quot;font-size: 11px;&quot;&gt;[Container: React]&lt;/font&gt;&lt;/div&gt;&lt;div style=&quot;font-size: 11px;&quot;&gt;&lt;font style=&quot;font-size: 11px;&quot;&gt;&lt;br&gt;&lt;/font&gt;&lt;/div&gt;&lt;div style=&quot;&quot;&gt;&lt;span style=&quot;background-color: initial;&quot;&gt;&lt;font style=&quot;font-size: 12px;&quot;&gt;Provides all the functionality to customers via their web browser.&lt;/font&gt;&lt;/span&gt;&lt;/div&gt;" style="rounded=1;whiteSpace=wrap;html=1;absoluteArcSize=1;arcSize=14;strokeWidth=2;fillColor=#dae8fc;strokeColor=#6c8ebf;" vertex="1" parent="1">
          <mxGeometry x="-160" y="260" width="170" height="110" as="geometry" />
        </mxCell>
        <mxCell id="MgXlGDydDEbSnXE4OkCF-12" value="Container diagram" style="text;html=1;align=left;verticalAlign=middle;whiteSpace=wrap;rounded=0;" vertex="1" parent="1">
          <mxGeometry x="-164" y="10" width="120" height="30" as="geometry" />
        </mxCell>
        <mxCell id="MgXlGDydDEbSnXE4OkCF-13" style="edgeStyle=orthogonalEdgeStyle;rounded=0;orthogonalLoop=1;jettySize=auto;html=1;entryX=0.5;entryY=0;entryDx=0;entryDy=0;dashed=1;" edge="1" parent="1" source="MgXlGDydDEbSnXE4OkCF-15" target="MgXlGDydDEbSnXE4OkCF-17">
          <mxGeometry relative="1" as="geometry" />
        </mxCell>
        <mxCell id="MgXlGDydDEbSnXE4OkCF-14" value="Views account, friend with people,&lt;div&gt;comment on profiles.&lt;/div&gt;" style="edgeLabel;html=1;align=center;verticalAlign=middle;resizable=0;points=[];" vertex="1" connectable="0" parent="MgXlGDydDEbSnXE4OkCF-13">
          <mxGeometry x="-0.2383" relative="1" as="geometry">
            <mxPoint y="10" as="offset" />
          </mxGeometry>
        </mxCell>
        <mxCell id="MgXlGDydDEbSnXE4OkCF-15" value="User" style="rounded=1;whiteSpace=wrap;html=1;absoluteArcSize=1;arcSize=14;strokeWidth=2;fillColor=#0050ef;strokeColor=#001DBC;fontColor=#ffffff;" vertex="1" parent="1">
          <mxGeometry x="-390" y="100" width="100" height="70" as="geometry" />
        </mxCell>
        <mxCell id="MgXlGDydDEbSnXE4OkCF-16" value="" style="verticalLabelPosition=bottom;verticalAlign=top;html=1;shape=mxgraph.flowchart.on-page_reference;fillColor=#0050ef;strokeColor=#001DBC;fontColor=#ffffff;" vertex="1" parent="1">
          <mxGeometry x="-370" y="62" width="60" height="60" as="geometry" />
        </mxCell>
        <mxCell id="MgXlGDydDEbSnXE4OkCF-17" value="&lt;b style=&quot;font-size: 13px;&quot;&gt;&lt;font style=&quot;font-size: 13px;&quot;&gt;Hyves platform&lt;/font&gt;&lt;/b&gt;&lt;div style=&quot;&quot;&gt;&lt;font style=&quot;font-size: 11px;&quot;&gt;[Software system]&lt;/font&gt;&lt;/div&gt;&lt;div style=&quot;&quot;&gt;&lt;span style=&quot;font-size: 11px;&quot;&gt;&lt;br&gt;&lt;/span&gt;&lt;div style=&quot;&quot;&gt;&lt;font style=&quot;font-size: 12px;&quot;&gt;The platform which allows users to connect with each other&lt;/font&gt;&lt;/div&gt;&lt;/div&gt;" style="rounded=1;whiteSpace=wrap;html=1;absoluteArcSize=1;arcSize=14;strokeWidth=2;fillColor=#dae8fc;strokeColor=#6c8ebf;" vertex="1" parent="1">
          <mxGeometry x="-425" y="250" width="170" height="100" as="geometry" />
        </mxCell>
        <mxCell id="MgXlGDydDEbSnXE4OkCF-18" value="System context diagram" style="text;html=1;align=left;verticalAlign=middle;whiteSpace=wrap;rounded=0;" vertex="1" parent="1">
          <mxGeometry x="-440" y="10" width="180" height="30" as="geometry" />
        </mxCell>
        <mxCell id="MgXlGDydDEbSnXE4OkCF-19" value="" style="endArrow=none;dashed=1;html=1;dashPattern=1 3;strokeWidth=2;rounded=0;" edge="1" parent="1">
          <mxGeometry width="50" height="50" relative="1" as="geometry">
            <mxPoint x="-170" y="620" as="sourcePoint" />
            <mxPoint x="240" y="621" as="targetPoint" />
          </mxGeometry>
        </mxCell>
        <mxCell id="MgXlGDydDEbSnXE4OkCF-20" value="" style="endArrow=none;dashed=1;html=1;dashPattern=1 3;strokeWidth=2;rounded=0;" edge="1" parent="1">
          <mxGeometry width="50" height="50" relative="1" as="geometry">
            <mxPoint x="-170" y="230" as="sourcePoint" />
            <mxPoint x="240" y="230" as="targetPoint" />
          </mxGeometry>
        </mxCell>
        <mxCell id="MgXlGDydDEbSnXE4OkCF-21" value="" style="endArrow=none;dashed=1;html=1;dashPattern=1 3;strokeWidth=2;rounded=0;" edge="1" parent="1">
          <mxGeometry width="50" height="50" relative="1" as="geometry">
            <mxPoint x="-170" y="620" as="sourcePoint" />
            <mxPoint x="-170" y="230" as="targetPoint" />
          </mxGeometry>
        </mxCell>
        <mxCell id="MgXlGDydDEbSnXE4OkCF-22" value="Hyves platform" style="text;html=1;align=left;verticalAlign=middle;whiteSpace=wrap;rounded=0;" vertex="1" parent="1">
          <mxGeometry x="-164" y="592" width="120" height="30" as="geometry" />
        </mxCell>
        <mxCell id="MgXlGDydDEbSnXE4OkCF-23" value="&lt;div&gt;&lt;b&gt;&lt;br&gt;&lt;/b&gt;&lt;/div&gt;&lt;b style=&quot;font-size: 13px;&quot;&gt;&lt;font style=&quot;font-size: 13px;&quot;&gt;Profile database&lt;/font&gt;&lt;/b&gt;&lt;div style=&quot;font-size: 11px;&quot;&gt;[Container: PostgreSQL]&lt;/div&gt;&lt;div style=&quot;font-size: 11px;&quot;&gt;&lt;br&gt;&lt;/div&gt;&lt;div style=&quot;&quot;&gt;&lt;font style=&quot;font-size: 12px;&quot;&gt;Stores profile information&lt;/font&gt;&lt;/div&gt;" style="strokeWidth=2;html=1;shape=mxgraph.flowchart.database;whiteSpace=wrap;fillColor=#dae8fc;strokeColor=#6c8ebf;" vertex="1" parent="1">
          <mxGeometry x="419" y="1176.5" width="150" height="120" as="geometry" />
        </mxCell>
        <mxCell id="MgXlGDydDEbSnXE4OkCF-24" style="rounded=0;orthogonalLoop=1;jettySize=auto;html=1;dashed=1;endArrow=none;endFill=0;" edge="1" parent="1" source="MgXlGDydDEbSnXE4OkCF-25" target="MgXlGDydDEbSnXE4OkCF-97">
          <mxGeometry relative="1" as="geometry" />
        </mxCell>
        <mxCell id="MgXlGDydDEbSnXE4OkCF-25" value="&lt;div style=&quot;font-size: 13px;&quot;&gt;&lt;b&gt;&lt;font style=&quot;font-size: 13px;&quot;&gt;Profile service&lt;/font&gt;&lt;/b&gt;&lt;/div&gt;&lt;div style=&quot;&quot;&gt;&lt;font style=&quot;font-size: 11px;&quot;&gt;[Component: Django REST framework]&lt;/font&gt;&lt;/div&gt;&lt;div style=&quot;&quot;&gt;&lt;font style=&quot;font-size: 11px;&quot;&gt;&lt;br&gt;&lt;/font&gt;&lt;/div&gt;&lt;div style=&quot;&quot;&gt;&lt;font style=&quot;font-size: 12px;&quot;&gt;Manages user profiles, including creating, updating, and retrieving profile data.&lt;/font&gt;&lt;br&gt;&lt;/div&gt;" style="rounded=1;whiteSpace=wrap;html=1;absoluteArcSize=1;arcSize=14;strokeWidth=2;fillColor=#dae8fc;strokeColor=#6c8ebf;" vertex="1" parent="1">
          <mxGeometry x="411" y="995" width="166" height="113" as="geometry" />
        </mxCell>
        <mxCell id="MgXlGDydDEbSnXE4OkCF-26" style="rounded=0;orthogonalLoop=1;jettySize=auto;html=1;entryX=0.5;entryY=0;entryDx=0;entryDy=0;entryPerimeter=0;dashed=1;" edge="1" parent="1" source="MgXlGDydDEbSnXE4OkCF-25" target="MgXlGDydDEbSnXE4OkCF-23">
          <mxGeometry relative="1" as="geometry" />
        </mxCell>
        <mxCell id="MgXlGDydDEbSnXE4OkCF-27" value="Reads from and&lt;div&gt;writes to&lt;/div&gt;" style="edgeLabel;html=1;align=center;verticalAlign=middle;resizable=0;points=[];" vertex="1" connectable="0" parent="MgXlGDydDEbSnXE4OkCF-26">
          <mxGeometry x="-0.0455" y="2" relative="1" as="geometry">
            <mxPoint x="-2" as="offset" />
          </mxGeometry>
        </mxCell>
        <mxCell id="MgXlGDydDEbSnXE4OkCF-28" value="&lt;div&gt;&lt;b&gt;&lt;br&gt;&lt;/b&gt;&lt;/div&gt;&lt;b style=&quot;font-size: 13px;&quot;&gt;&lt;font style=&quot;font-size: 13px;&quot;&gt;Account database&lt;/font&gt;&lt;/b&gt;&lt;div style=&quot;&quot;&gt;&lt;font style=&quot;font-size: 11px;&quot;&gt;[Container: PostgreSQL]&lt;/font&gt;&lt;/div&gt;&lt;div&gt;&lt;br&gt;&lt;/div&gt;&lt;div style=&quot;&quot;&gt;&lt;font style=&quot;font-size: 12px;&quot;&gt;Stores account information&lt;/font&gt;&lt;/div&gt;" style="strokeWidth=2;html=1;shape=mxgraph.flowchart.database;whiteSpace=wrap;fillColor=#dae8fc;strokeColor=#6c8ebf;" vertex="1" parent="1">
          <mxGeometry x="762" y="1180" width="150" height="120" as="geometry" />
        </mxCell>
        <mxCell id="MgXlGDydDEbSnXE4OkCF-29" style="rounded=0;orthogonalLoop=1;jettySize=auto;html=1;dashed=1;" edge="1" parent="1" source="MgXlGDydDEbSnXE4OkCF-33" target="MgXlGDydDEbSnXE4OkCF-28">
          <mxGeometry relative="1" as="geometry" />
        </mxCell>
        <mxCell id="MgXlGDydDEbSnXE4OkCF-30" value="Reads from and&lt;div&gt;writes to&lt;/div&gt;" style="edgeLabel;html=1;align=center;verticalAlign=middle;resizable=0;points=[];" vertex="1" connectable="0" parent="MgXlGDydDEbSnXE4OkCF-29">
          <mxGeometry x="-0.1455" y="-3" relative="1" as="geometry">
            <mxPoint x="1" y="1" as="offset" />
          </mxGeometry>
        </mxCell>
        <mxCell id="MgXlGDydDEbSnXE4OkCF-31" style="rounded=0;orthogonalLoop=1;jettySize=auto;html=1;entryX=1;entryY=0.5;entryDx=0;entryDy=0;dashed=1;endArrow=none;endFill=0;" edge="1" parent="1" source="MgXlGDydDEbSnXE4OkCF-33" target="MgXlGDydDEbSnXE4OkCF-97">
          <mxGeometry relative="1" as="geometry" />
        </mxCell>
        <mxCell id="MgXlGDydDEbSnXE4OkCF-32" style="rounded=0;orthogonalLoop=1;jettySize=auto;html=1;entryX=0;entryY=0.5;entryDx=0;entryDy=0;dashed=1;endArrow=none;endFill=0;" edge="1" parent="1" source="MgXlGDydDEbSnXE4OkCF-33" target="MgXlGDydDEbSnXE4OkCF-87">
          <mxGeometry relative="1" as="geometry" />
        </mxCell>
        <mxCell id="MgXlGDydDEbSnXE4OkCF-33" value="&lt;div style=&quot;font-size: 13px;&quot;&gt;&lt;b&gt;&lt;font style=&quot;font-size: 13px;&quot;&gt;Account service&lt;/font&gt;&lt;/b&gt;&lt;/div&gt;&lt;div style=&quot;&quot;&gt;&lt;font style=&quot;font-size: 11px;&quot;&gt;[Component: Django REST framework]&lt;/font&gt;&lt;/div&gt;&lt;div&gt;&lt;br&gt;&lt;/div&gt;&lt;div style=&quot;&quot;&gt;&lt;font style=&quot;font-size: 12px;&quot;&gt;Manages user accounts, authentication, and authorization.&lt;/font&gt;&lt;br&gt;&lt;/div&gt;" style="rounded=1;whiteSpace=wrap;html=1;absoluteArcSize=1;arcSize=14;strokeWidth=2;fillColor=#dae8fc;strokeColor=#6c8ebf;" vertex="1" parent="1">
          <mxGeometry x="755" y="985" width="164" height="113" as="geometry" />
        </mxCell>
        <mxCell id="MgXlGDydDEbSnXE4OkCF-34" value="&lt;div&gt;&lt;b&gt;&lt;br&gt;&lt;/b&gt;&lt;/div&gt;&lt;b style=&quot;font-size: 13px;&quot;&gt;&lt;div&gt;&lt;b&gt;&lt;br&gt;&lt;/b&gt;&lt;/div&gt;&lt;font style=&quot;font-size: 13px;&quot;&gt;Comment database&lt;/font&gt;&lt;/b&gt;&lt;div style=&quot;&quot;&gt;&lt;font style=&quot;font-size: 11px;&quot;&gt;[Container: MongoDB]&lt;/font&gt;&lt;/div&gt;&lt;div&gt;&lt;br&gt;&lt;/div&gt;&lt;div style=&quot;&quot;&gt;&lt;font style=&quot;font-size: 12px;&quot;&gt;Stores content information, such as posts and messages&lt;/font&gt;&lt;/div&gt;" style="strokeWidth=2;html=1;shape=mxgraph.flowchart.database;whiteSpace=wrap;fillColor=#dae8fc;strokeColor=#6c8ebf;" vertex="1" parent="1">
          <mxGeometry x="1412" y="1167.5" width="165" height="127" as="geometry" />
        </mxCell>
        <mxCell id="MgXlGDydDEbSnXE4OkCF-35" value="" style="rounded=0;orthogonalLoop=1;jettySize=auto;html=1;dashed=1;" edge="1" parent="1" source="MgXlGDydDEbSnXE4OkCF-38" target="MgXlGDydDEbSnXE4OkCF-34">
          <mxGeometry relative="1" as="geometry" />
        </mxCell>
        <mxCell id="MgXlGDydDEbSnXE4OkCF-36" value="Reads from and&lt;div&gt;writes to&lt;/div&gt;" style="edgeLabel;html=1;align=center;verticalAlign=middle;resizable=0;points=[];" vertex="1" connectable="0" parent="MgXlGDydDEbSnXE4OkCF-35">
          <mxGeometry x="-0.1122" y="-1" relative="1" as="geometry">
            <mxPoint x="1" as="offset" />
          </mxGeometry>
        </mxCell>
        <mxCell id="MgXlGDydDEbSnXE4OkCF-37" style="rounded=0;orthogonalLoop=1;jettySize=auto;html=1;entryX=1;entryY=0.5;entryDx=0;entryDy=0;dashed=1;endArrow=none;endFill=0;" edge="1" parent="1" source="MgXlGDydDEbSnXE4OkCF-38" target="MgXlGDydDEbSnXE4OkCF-88">
          <mxGeometry relative="1" as="geometry" />
        </mxCell>
        <mxCell id="MgXlGDydDEbSnXE4OkCF-38" value="&lt;div style=&quot;font-size: 13px;&quot;&gt;&lt;b&gt;&lt;font style=&quot;font-size: 13px;&quot;&gt;Comment service&lt;/font&gt;&lt;/b&gt;&lt;/div&gt;&lt;div style=&quot;&quot;&gt;&lt;font style=&quot;font-size: 11px;&quot;&gt;[Component: Django REST framework]&lt;/font&gt;&lt;/div&gt;&lt;div&gt;&lt;br&gt;&lt;/div&gt;&lt;div style=&quot;&quot;&gt;&lt;font style=&quot;font-size: 12px;&quot;&gt;Handles comments under posts&lt;/font&gt;&lt;br&gt;&lt;/div&gt;" style="rounded=1;whiteSpace=wrap;html=1;absoluteArcSize=1;arcSize=14;strokeWidth=2;fillColor=#dae8fc;strokeColor=#6c8ebf;" vertex="1" parent="1">
          <mxGeometry x="1412" y="980" width="160" height="113" as="geometry" />
        </mxCell>
        <mxCell id="MgXlGDydDEbSnXE4OkCF-39" style="rounded=0;orthogonalLoop=1;jettySize=auto;html=1;entryX=0.5;entryY=0;entryDx=0;entryDy=0;dashed=1;" edge="1" parent="1" source="MgXlGDydDEbSnXE4OkCF-40" target="MgXlGDydDEbSnXE4OkCF-41">
          <mxGeometry relative="1" as="geometry" />
        </mxCell>
        <mxCell id="MgXlGDydDEbSnXE4OkCF-40" value="&lt;div style=&quot;font-size: 13px;&quot;&gt;&lt;span style=&quot;background-color: initial;&quot;&gt;&lt;b&gt;&lt;font style=&quot;font-size: 13px;&quot;&gt;Mobile application&lt;/font&gt;&lt;/b&gt;&lt;/span&gt;&lt;/div&gt;&lt;div style=&quot;font-size: 11px;&quot;&gt;&lt;font style=&quot;font-size: 11px;&quot;&gt;[Container: React Native]&lt;/font&gt;&lt;/div&gt;&lt;div style=&quot;font-size: 11px;&quot;&gt;&lt;font style=&quot;font-size: 11px;&quot;&gt;&lt;br&gt;&lt;/font&gt;&lt;/div&gt;&lt;div style=&quot;&quot;&gt;&lt;span style=&quot;background-color: initial;&quot;&gt;&lt;font style=&quot;font-size: 12px;&quot;&gt;Provides all the functionality to the customer via their mobile device.&lt;/font&gt;&lt;/span&gt;&lt;/div&gt;" style="rounded=1;whiteSpace=wrap;html=1;absoluteArcSize=1;arcSize=14;strokeWidth=2;fillColor=#dae8fc;strokeColor=#6c8ebf;" vertex="1" parent="1">
          <mxGeometry x="50" y="260" width="170" height="110" as="geometry" />
        </mxCell>
        <mxCell id="MgXlGDydDEbSnXE4OkCF-41" value="&lt;div style=&quot;font-size: 13px;&quot;&gt;&lt;span style=&quot;background-color: initial;&quot;&gt;&lt;b&gt;&lt;font style=&quot;font-size: 13px;&quot;&gt;Backend application&lt;/font&gt;&lt;/b&gt;&lt;/span&gt;&lt;/div&gt;&lt;div style=&quot;font-size: 11px;&quot;&gt;&lt;font style=&quot;font-size: 11px;&quot;&gt;[Container: Python - Django REST Framework, PostgreSQL and MongoDB]&lt;/font&gt;&lt;/div&gt;&lt;div style=&quot;font-size: 11px;&quot;&gt;&lt;font style=&quot;font-size: 11px;&quot;&gt;&lt;br&gt;&lt;/font&gt;&lt;/div&gt;&lt;div style=&quot;&quot;&gt;&lt;span style=&quot;background-color: initial;&quot;&gt;&lt;font style=&quot;font-size: 12px;&quot;&gt;Provides functionality via a HTTPS/JSON API and saves data in the database&lt;/font&gt;&lt;/span&gt;&lt;/div&gt;" style="rounded=1;whiteSpace=wrap;html=1;absoluteArcSize=1;arcSize=14;strokeWidth=2;fillColor=#dae8fc;strokeColor=#6c8ebf;" vertex="1" parent="1">
          <mxGeometry x="-67.5" y="470" width="195" height="130" as="geometry" />
        </mxCell>
        <mxCell id="MgXlGDydDEbSnXE4OkCF-42" value="" style="endArrow=none;dashed=1;html=1;dashPattern=1 3;strokeWidth=2;rounded=0;" edge="1" parent="1">
          <mxGeometry width="50" height="50" relative="1" as="geometry">
            <mxPoint x="240" y="620" as="sourcePoint" />
            <mxPoint x="240" y="230" as="targetPoint" />
          </mxGeometry>
        </mxCell>
        <mxCell id="MgXlGDydDEbSnXE4OkCF-43" value="" style="rounded=0;orthogonalLoop=1;jettySize=auto;html=1;dashed=1;entryX=0.5;entryY=0;entryDx=0;entryDy=0;" edge="1" parent="1" source="MgXlGDydDEbSnXE4OkCF-45" target="MgXlGDydDEbSnXE4OkCF-33">
          <mxGeometry relative="1" as="geometry">
            <mxPoint x="832" y="985" as="targetPoint" />
          </mxGeometry>
        </mxCell>
        <mxCell id="MgXlGDydDEbSnXE4OkCF-44" value="Uses" style="edgeLabel;html=1;align=center;verticalAlign=middle;resizable=0;points=[];" vertex="1" connectable="0" parent="MgXlGDydDEbSnXE4OkCF-43">
          <mxGeometry x="-0.1471" relative="1" as="geometry">
            <mxPoint as="offset" />
          </mxGeometry>
        </mxCell>
        <mxCell id="MgXlGDydDEbSnXE4OkCF-45" value="&lt;div style=&quot;font-size: 13px;&quot;&gt;&lt;b&gt;&lt;font style=&quot;font-size: 13px;&quot;&gt;Sign in controller&lt;/font&gt;&lt;/b&gt;&lt;/div&gt;&lt;div style=&quot;&quot;&gt;&lt;font style=&quot;font-size: 11px;&quot;&gt;[Component: Django REST framework]&lt;/font&gt;&lt;/div&gt;&lt;div&gt;&lt;br&gt;&lt;/div&gt;&lt;div style=&quot;&quot;&gt;Allows users to sign in to the system.&lt;/div&gt;" style="rounded=1;whiteSpace=wrap;html=1;absoluteArcSize=1;arcSize=14;strokeWidth=2;fillColor=#dae8fc;strokeColor=#6c8ebf;" vertex="1" parent="1">
          <mxGeometry x="755" y="826" width="164" height="113" as="geometry" />
        </mxCell>
        <mxCell id="MgXlGDydDEbSnXE4OkCF-46" style="rounded=0;orthogonalLoop=1;jettySize=auto;html=1;dashed=1;entryX=0.5;entryY=0;entryDx=0;entryDy=0;" edge="1" parent="1" source="MgXlGDydDEbSnXE4OkCF-48" target="MgXlGDydDEbSnXE4OkCF-25">
          <mxGeometry relative="1" as="geometry">
            <mxPoint x="457" y="992.5" as="targetPoint" />
          </mxGeometry>
        </mxCell>
        <mxCell id="MgXlGDydDEbSnXE4OkCF-47" value="Uses" style="edgeLabel;html=1;align=center;verticalAlign=middle;resizable=0;points=[];" vertex="1" connectable="0" parent="MgXlGDydDEbSnXE4OkCF-46">
          <mxGeometry x="-0.1694" relative="1" as="geometry">
            <mxPoint x="4" y="5" as="offset" />
          </mxGeometry>
        </mxCell>
        <mxCell id="MgXlGDydDEbSnXE4OkCF-48" value="&lt;div style=&quot;font-size: 13px;&quot;&gt;&lt;b&gt;&lt;font style=&quot;font-size: 13px;&quot;&gt;Follow controller&lt;/font&gt;&lt;/b&gt;&lt;/div&gt;&lt;div style=&quot;&quot;&gt;&lt;font style=&quot;font-size: 11px;&quot;&gt;[Component: Django REST framework]&lt;/font&gt;&lt;/div&gt;&lt;div&gt;&lt;br&gt;&lt;/div&gt;&lt;div style=&quot;&quot;&gt;Allows users to follow other users&lt;/div&gt;" style="rounded=1;whiteSpace=wrap;html=1;absoluteArcSize=1;arcSize=14;strokeWidth=2;fillColor=#dae8fc;strokeColor=#6c8ebf;" vertex="1" parent="1">
          <mxGeometry x="310" y="825" width="164" height="113" as="geometry" />
        </mxCell>
        <mxCell id="MgXlGDydDEbSnXE4OkCF-49" style="rounded=0;orthogonalLoop=1;jettySize=auto;html=1;entryX=0.5;entryY=0;entryDx=0;entryDy=0;dashed=1;" edge="1" parent="1" source="MgXlGDydDEbSnXE4OkCF-51" target="MgXlGDydDEbSnXE4OkCF-25">
          <mxGeometry relative="1" as="geometry" />
        </mxCell>
        <mxCell id="MgXlGDydDEbSnXE4OkCF-50" value="Uses" style="edgeLabel;html=1;align=center;verticalAlign=middle;resizable=0;points=[];" vertex="1" connectable="0" parent="MgXlGDydDEbSnXE4OkCF-49">
          <mxGeometry x="-0.1469" y="1" relative="1" as="geometry">
            <mxPoint x="-2" y="3" as="offset" />
          </mxGeometry>
        </mxCell>
        <mxCell id="MgXlGDydDEbSnXE4OkCF-51" value="&lt;div style=&quot;font-size: 13px;&quot;&gt;&lt;b&gt;&lt;font style=&quot;font-size: 13px;&quot;&gt;Friend controller&lt;/font&gt;&lt;/b&gt;&lt;/div&gt;&lt;div style=&quot;&quot;&gt;&lt;font style=&quot;font-size: 11px;&quot;&gt;[Component: Django REST framework]&lt;/font&gt;&lt;/div&gt;&lt;div&gt;&lt;br&gt;&lt;/div&gt;&lt;div style=&quot;&quot;&gt;Allows users to friend other users&lt;/div&gt;" style="rounded=1;whiteSpace=wrap;html=1;absoluteArcSize=1;arcSize=14;strokeWidth=2;fillColor=#dae8fc;strokeColor=#6c8ebf;" vertex="1" parent="1">
          <mxGeometry x="517" y="825" width="164" height="113" as="geometry" />
        </mxCell>
        <mxCell id="MgXlGDydDEbSnXE4OkCF-52" style="rounded=0;orthogonalLoop=1;jettySize=auto;html=1;entryX=0.5;entryY=0;entryDx=0;entryDy=0;dashed=1;" edge="1" parent="1" source="MgXlGDydDEbSnXE4OkCF-54" target="MgXlGDydDEbSnXE4OkCF-60">
          <mxGeometry relative="1" as="geometry" />
        </mxCell>
        <mxCell id="MgXlGDydDEbSnXE4OkCF-53" value="Uses" style="edgeLabel;html=1;align=center;verticalAlign=middle;resizable=0;points=[];" vertex="1" connectable="0" parent="MgXlGDydDEbSnXE4OkCF-52">
          <mxGeometry x="-0.1331" relative="1" as="geometry">
            <mxPoint as="offset" />
          </mxGeometry>
        </mxCell>
        <mxCell id="MgXlGDydDEbSnXE4OkCF-54" value="&lt;div style=&quot;font-size: 13px;&quot;&gt;&lt;b&gt;&lt;font style=&quot;font-size: 13px;&quot;&gt;Post controller&lt;/font&gt;&lt;/b&gt;&lt;/div&gt;&lt;div style=&quot;&quot;&gt;&lt;font style=&quot;font-size: 11px;&quot;&gt;[Component: Django REST framework]&lt;/font&gt;&lt;/div&gt;&lt;div&gt;&lt;br&gt;&lt;/div&gt;&lt;div style=&quot;&quot;&gt;Allows users post&lt;/div&gt;" style="rounded=1;whiteSpace=wrap;html=1;absoluteArcSize=1;arcSize=14;strokeWidth=2;fillColor=#dae8fc;strokeColor=#6c8ebf;" vertex="1" parent="1">
          <mxGeometry x="1095" y="827" width="164" height="113" as="geometry" />
        </mxCell>
        <mxCell id="MgXlGDydDEbSnXE4OkCF-55" style="rounded=0;orthogonalLoop=1;jettySize=auto;html=1;entryX=0.5;entryY=0;entryDx=0;entryDy=0;dashed=1;" edge="1" parent="1" source="MgXlGDydDEbSnXE4OkCF-57" target="MgXlGDydDEbSnXE4OkCF-38">
          <mxGeometry relative="1" as="geometry" />
        </mxCell>
        <mxCell id="MgXlGDydDEbSnXE4OkCF-56" value="Uses" style="edgeLabel;html=1;align=center;verticalAlign=middle;resizable=0;points=[];" vertex="1" connectable="0" parent="MgXlGDydDEbSnXE4OkCF-55">
          <mxGeometry x="-0.0759" relative="1" as="geometry">
            <mxPoint as="offset" />
          </mxGeometry>
        </mxCell>
        <mxCell id="MgXlGDydDEbSnXE4OkCF-57" value="&lt;div style=&quot;font-size: 13px;&quot;&gt;&lt;b&gt;&lt;font style=&quot;font-size: 13px;&quot;&gt;Comment controller&lt;/font&gt;&lt;/b&gt;&lt;/div&gt;&lt;div style=&quot;&quot;&gt;&lt;font style=&quot;font-size: 11px;&quot;&gt;[Component: Django REST framework]&lt;/font&gt;&lt;/div&gt;&lt;div&gt;&lt;br&gt;&lt;/div&gt;&lt;div style=&quot;&quot;&gt;Allows users comment on posts and profiles&lt;/div&gt;" style="rounded=1;whiteSpace=wrap;html=1;absoluteArcSize=1;arcSize=14;strokeWidth=2;fillColor=#DAE8FC;strokeColor=#6c8ebf;" vertex="1" parent="1">
          <mxGeometry x="1410" y="825" width="164" height="113" as="geometry" />
        </mxCell>
        <mxCell id="MgXlGDydDEbSnXE4OkCF-58" style="rounded=0;orthogonalLoop=1;jettySize=auto;html=1;entryX=1;entryY=0.5;entryDx=0;entryDy=0;dashed=1;endArrow=none;endFill=0;" edge="1" parent="1" source="MgXlGDydDEbSnXE4OkCF-60" target="MgXlGDydDEbSnXE4OkCF-87">
          <mxGeometry relative="1" as="geometry" />
        </mxCell>
        <mxCell id="MgXlGDydDEbSnXE4OkCF-59" style="rounded=0;orthogonalLoop=1;jettySize=auto;html=1;entryX=0;entryY=0.5;entryDx=0;entryDy=0;dashed=1;endArrow=none;endFill=0;" edge="1" parent="1" source="MgXlGDydDEbSnXE4OkCF-60" target="MgXlGDydDEbSnXE4OkCF-88">
          <mxGeometry relative="1" as="geometry" />
        </mxCell>
        <mxCell id="MgXlGDydDEbSnXE4OkCF-60" value="&lt;div style=&quot;font-size: 13px;&quot;&gt;&lt;b&gt;&lt;font style=&quot;font-size: 13px;&quot;&gt;Post service&lt;/font&gt;&lt;/b&gt;&lt;/div&gt;&lt;div style=&quot;&quot;&gt;&lt;font style=&quot;font-size: 11px;&quot;&gt;[Component: Django REST framework]&lt;/font&gt;&lt;/div&gt;&lt;div&gt;&lt;br&gt;&lt;/div&gt;&lt;div style=&quot;&quot;&gt;&lt;font style=&quot;font-size: 12px;&quot;&gt;Handles content creation for posts&lt;/font&gt;&lt;br&gt;&lt;/div&gt;" style="rounded=1;whiteSpace=wrap;html=1;absoluteArcSize=1;arcSize=14;strokeWidth=2;fillColor=#dae8fc;strokeColor=#6c8ebf;" vertex="1" parent="1">
          <mxGeometry x="1097" y="984.5" width="160" height="113" as="geometry" />
        </mxCell>
        <mxCell id="MgXlGDydDEbSnXE4OkCF-61" value="&lt;div&gt;&lt;b&gt;&lt;br&gt;&lt;/b&gt;&lt;/div&gt;&lt;b style=&quot;font-size: 13px;&quot;&gt;&lt;div&gt;&lt;b&gt;&lt;br&gt;&lt;/b&gt;&lt;/div&gt;&lt;font style=&quot;font-size: 13px;&quot;&gt;Post database&lt;/font&gt;&lt;/b&gt;&lt;div style=&quot;&quot;&gt;&lt;font style=&quot;font-size: 11px;&quot;&gt;[Container: MongoDB]&lt;/font&gt;&lt;/div&gt;&lt;div&gt;&lt;br&gt;&lt;/div&gt;&lt;div style=&quot;&quot;&gt;&lt;font style=&quot;font-size: 12px;&quot;&gt;Stores content information, such as posts and messages&lt;/font&gt;&lt;/div&gt;" style="strokeWidth=2;html=1;shape=mxgraph.flowchart.database;whiteSpace=wrap;fillColor=#dae8fc;strokeColor=#6c8ebf;" vertex="1" parent="1">
          <mxGeometry x="1094" y="1169.5" width="165" height="127" as="geometry" />
        </mxCell>
        <mxCell id="MgXlGDydDEbSnXE4OkCF-62" style="rounded=0;orthogonalLoop=1;jettySize=auto;html=1;entryX=0.5;entryY=0;entryDx=0;entryDy=0;entryPerimeter=0;dashed=1;" edge="1" parent="1" source="MgXlGDydDEbSnXE4OkCF-60" target="MgXlGDydDEbSnXE4OkCF-61">
          <mxGeometry relative="1" as="geometry" />
        </mxCell>
        <mxCell id="MgXlGDydDEbSnXE4OkCF-63" value="Reads from and&lt;div&gt;writes to&lt;/div&gt;" style="edgeLabel;html=1;align=center;verticalAlign=middle;resizable=0;points=[];" vertex="1" connectable="0" parent="MgXlGDydDEbSnXE4OkCF-62">
          <mxGeometry x="-0.0582" y="-2" relative="1" as="geometry">
            <mxPoint as="offset" />
          </mxGeometry>
        </mxCell>
        <mxCell id="MgXlGDydDEbSnXE4OkCF-64" style="rounded=0;orthogonalLoop=1;jettySize=auto;html=1;entryX=0.5;entryY=0;entryDx=0;entryDy=0;dashed=1;" edge="1" parent="1" source="MgXlGDydDEbSnXE4OkCF-66" target="MgXlGDydDEbSnXE4OkCF-81">
          <mxGeometry relative="1" as="geometry" />
        </mxCell>
        <mxCell id="MgXlGDydDEbSnXE4OkCF-65" value="Makes calls to&lt;div&gt;[HTTPS/JSON]&lt;/div&gt;" style="edgeLabel;html=1;align=center;verticalAlign=middle;resizable=0;points=[];" vertex="1" connectable="0" parent="MgXlGDydDEbSnXE4OkCF-64">
          <mxGeometry x="-0.2627" relative="1" as="geometry">
            <mxPoint x="13" y="7" as="offset" />
          </mxGeometry>
        </mxCell>
        <mxCell id="MgXlGDydDEbSnXE4OkCF-66" value="&lt;div style=&quot;font-size: 13px;&quot;&gt;&lt;span style=&quot;background-color: initial;&quot;&gt;&lt;b&gt;&lt;font color=&quot;#ffffff&quot; style=&quot;font-size: 13px;&quot;&gt;Single page application&lt;/font&gt;&lt;/b&gt;&lt;/span&gt;&lt;/div&gt;&lt;div style=&quot;font-size: 11px;&quot;&gt;&lt;font color=&quot;#ffffff&quot; style=&quot;font-size: 11px;&quot;&gt;[Container: React]&lt;/font&gt;&lt;/div&gt;&lt;div style=&quot;font-size: 11px;&quot;&gt;&lt;font color=&quot;#ffffff&quot; style=&quot;font-size: 11px;&quot;&gt;&lt;br&gt;&lt;/font&gt;&lt;/div&gt;&lt;div style=&quot;&quot;&gt;&lt;span style=&quot;background-color: initial;&quot;&gt;&lt;font color=&quot;#ffffff&quot; style=&quot;font-size: 12px;&quot;&gt;Provides all the functionality to customers via their web browser.&lt;/font&gt;&lt;/span&gt;&lt;/div&gt;" style="rounded=1;whiteSpace=wrap;html=1;absoluteArcSize=1;arcSize=14;strokeWidth=2;fillColor=#0050EF;strokeColor=#6c8ebf;" vertex="1" parent="1">
          <mxGeometry x="474" y="-114" width="170" height="110" as="geometry" />
        </mxCell>
        <mxCell id="MgXlGDydDEbSnXE4OkCF-67" style="rounded=0;orthogonalLoop=1;jettySize=auto;html=1;entryX=0.5;entryY=0;entryDx=0;entryDy=0;dashed=1;" edge="1" parent="1" source="MgXlGDydDEbSnXE4OkCF-68" target="MgXlGDydDEbSnXE4OkCF-81">
          <mxGeometry relative="1" as="geometry" />
        </mxCell>
        <mxCell id="MgXlGDydDEbSnXE4OkCF-68" value="&lt;div style=&quot;font-size: 13px;&quot;&gt;&lt;span style=&quot;background-color: initial;&quot;&gt;&lt;b&gt;&lt;font color=&quot;#ffffff&quot; style=&quot;font-size: 13px;&quot;&gt;Mobile application&lt;/font&gt;&lt;/b&gt;&lt;/span&gt;&lt;/div&gt;&lt;div style=&quot;font-size: 11px;&quot;&gt;&lt;font color=&quot;#ffffff&quot; style=&quot;font-size: 11px;&quot;&gt;[Container: React Native]&lt;/font&gt;&lt;/div&gt;&lt;div style=&quot;font-size: 11px;&quot;&gt;&lt;font color=&quot;#ffffff&quot; style=&quot;font-size: 11px;&quot;&gt;&lt;br&gt;&lt;/font&gt;&lt;/div&gt;&lt;div style=&quot;&quot;&gt;&lt;span style=&quot;background-color: initial;&quot;&gt;&lt;font color=&quot;#ffffff&quot; style=&quot;font-size: 12px;&quot;&gt;Provides all the functionality to the customer via their mobile device.&lt;/font&gt;&lt;/span&gt;&lt;/div&gt;" style="rounded=1;whiteSpace=wrap;html=1;absoluteArcSize=1;arcSize=14;strokeWidth=2;fillColor=#0050EF;strokeColor=#6c8ebf;" vertex="1" parent="1">
          <mxGeometry x="870" y="-114" width="170" height="110" as="geometry" />
        </mxCell>
        <mxCell id="MgXlGDydDEbSnXE4OkCF-69" value="&lt;div style=&quot;&quot;&gt;&lt;span style=&quot;background-color: initial; font-size: 13px;&quot;&gt;&lt;b&gt;Connections Microservice&lt;/b&gt;&lt;/span&gt;&lt;/div&gt;&lt;div style=&quot;&quot;&gt;&lt;span style=&quot;font-size: 11px; background-color: initial;&quot;&gt;[Component: Django REST framework]&lt;/span&gt;&lt;br&gt;&lt;/div&gt;&lt;div&gt;&lt;br&gt;&lt;/div&gt;&lt;div style=&quot;&quot;&gt;Allows users to follow, friend other users and make their profile&lt;/div&gt;" style="rounded=1;whiteSpace=wrap;html=1;absoluteArcSize=1;arcSize=14;strokeWidth=2;fillColor=#dae8fc;strokeColor=#6c8ebf;" vertex="1" parent="1">
          <mxGeometry x="353" y="237" width="164" height="113" as="geometry" />
        </mxCell>
        <mxCell id="MgXlGDydDEbSnXE4OkCF-70" value="&lt;div style=&quot;&quot;&gt;&lt;span style=&quot;background-color: initial; font-size: 13px;&quot;&gt;&lt;b&gt;Account Microservice&lt;/b&gt;&lt;/span&gt;&lt;/div&gt;&lt;div style=&quot;&quot;&gt;&lt;span style=&quot;font-size: 11px; background-color: initial;&quot;&gt;[Component: Django REST framework]&lt;/span&gt;&lt;br&gt;&lt;/div&gt;&lt;div&gt;&lt;br&gt;&lt;/div&gt;&lt;div style=&quot;&quot;&gt;Allows users sign in and register to the system (Auth)&lt;/div&gt;" style="rounded=1;whiteSpace=wrap;html=1;absoluteArcSize=1;arcSize=14;strokeWidth=2;fillColor=#dae8fc;strokeColor=#6c8ebf;" vertex="1" parent="1">
          <mxGeometry x="569" y="237" width="164" height="113" as="geometry" />
        </mxCell>
        <mxCell id="MgXlGDydDEbSnXE4OkCF-71" value="&lt;div style=&quot;&quot;&gt;&lt;span style=&quot;background-color: initial; font-size: 13px;&quot;&gt;&lt;b&gt;Post Microservice&lt;/b&gt;&lt;/span&gt;&lt;/div&gt;&lt;div style=&quot;&quot;&gt;&lt;span style=&quot;font-size: 11px; background-color: initial;&quot;&gt;[Component: Django REST framework]&lt;/span&gt;&lt;br&gt;&lt;/div&gt;&lt;div&gt;&lt;br&gt;&lt;/div&gt;&lt;div style=&quot;&quot;&gt;Allows users post content on their profile&lt;/div&gt;" style="rounded=1;whiteSpace=wrap;html=1;absoluteArcSize=1;arcSize=14;strokeWidth=2;fillColor=#dae8fc;strokeColor=#6c8ebf;" vertex="1" parent="1">
          <mxGeometry x="786" y="237" width="164" height="113" as="geometry" />
        </mxCell>
        <mxCell id="MgXlGDydDEbSnXE4OkCF-72" value="&lt;div style=&quot;&quot;&gt;&lt;span style=&quot;background-color: initial; font-size: 13px;&quot;&gt;&lt;b&gt;Comment Microservice&lt;/b&gt;&lt;/span&gt;&lt;/div&gt;&lt;div style=&quot;&quot;&gt;&lt;span style=&quot;background-color: initial; font-size: 11px;&quot;&gt;[Component: Django REST framework]&lt;/span&gt;&lt;br&gt;&lt;/div&gt;&lt;div&gt;&lt;br&gt;&lt;/div&gt;&lt;div style=&quot;&quot;&gt;Allows users to comment under post and profiles&lt;/div&gt;" style="rounded=1;whiteSpace=wrap;html=1;absoluteArcSize=1;arcSize=14;strokeWidth=2;fillColor=#dae8fc;strokeColor=#6c8ebf;" vertex="1" parent="1">
          <mxGeometry x="1000" y="237" width="164" height="113" as="geometry" />
        </mxCell>
        <mxCell id="MgXlGDydDEbSnXE4OkCF-73" style="rounded=0;orthogonalLoop=1;jettySize=auto;html=1;entryX=0.5;entryY=0;entryDx=0;entryDy=0;dashed=1;" edge="1" parent="1" source="MgXlGDydDEbSnXE4OkCF-81" target="MgXlGDydDEbSnXE4OkCF-69">
          <mxGeometry relative="1" as="geometry" />
        </mxCell>
        <mxCell id="MgXlGDydDEbSnXE4OkCF-74" value="Makes calls to&lt;div&gt;[HTTPS/JSON]&lt;/div&gt;" style="edgeLabel;html=1;align=center;verticalAlign=middle;resizable=0;points=[];" vertex="1" connectable="0" parent="MgXlGDydDEbSnXE4OkCF-73">
          <mxGeometry x="-0.1538" y="-3" relative="1" as="geometry">
            <mxPoint as="offset" />
          </mxGeometry>
        </mxCell>
        <mxCell id="MgXlGDydDEbSnXE4OkCF-75" style="rounded=0;orthogonalLoop=1;jettySize=auto;html=1;entryX=0.5;entryY=0;entryDx=0;entryDy=0;dashed=1;" edge="1" parent="1" source="MgXlGDydDEbSnXE4OkCF-81" target="MgXlGDydDEbSnXE4OkCF-70">
          <mxGeometry relative="1" as="geometry" />
        </mxCell>
        <mxCell id="MgXlGDydDEbSnXE4OkCF-76" value="Makes calls to&lt;div&gt;[HTTPS/JSON]&lt;/div&gt;" style="edgeLabel;html=1;align=center;verticalAlign=middle;resizable=0;points=[];" vertex="1" connectable="0" parent="MgXlGDydDEbSnXE4OkCF-75">
          <mxGeometry x="0.0099" y="-1" relative="1" as="geometry">
            <mxPoint as="offset" />
          </mxGeometry>
        </mxCell>
        <mxCell id="MgXlGDydDEbSnXE4OkCF-77" style="rounded=0;orthogonalLoop=1;jettySize=auto;html=1;entryX=0.5;entryY=0;entryDx=0;entryDy=0;dashed=1;" edge="1" parent="1" source="MgXlGDydDEbSnXE4OkCF-81" target="MgXlGDydDEbSnXE4OkCF-71">
          <mxGeometry relative="1" as="geometry" />
        </mxCell>
        <mxCell id="MgXlGDydDEbSnXE4OkCF-78" value="Makes calls to&lt;div&gt;[HTTPS/JSON]&lt;/div&gt;" style="edgeLabel;html=1;align=center;verticalAlign=middle;resizable=0;points=[];" vertex="1" connectable="0" parent="MgXlGDydDEbSnXE4OkCF-77">
          <mxGeometry x="-0.0781" relative="1" as="geometry">
            <mxPoint as="offset" />
          </mxGeometry>
        </mxCell>
        <mxCell id="MgXlGDydDEbSnXE4OkCF-79" style="rounded=0;orthogonalLoop=1;jettySize=auto;html=1;entryX=0.5;entryY=0;entryDx=0;entryDy=0;dashed=1;" edge="1" parent="1" source="MgXlGDydDEbSnXE4OkCF-81" target="MgXlGDydDEbSnXE4OkCF-72">
          <mxGeometry relative="1" as="geometry" />
        </mxCell>
        <mxCell id="MgXlGDydDEbSnXE4OkCF-80" value="Makes calls to&lt;div&gt;[HTTPS/JSON]&lt;/div&gt;" style="edgeLabel;html=1;align=center;verticalAlign=middle;resizable=0;points=[];" vertex="1" connectable="0" parent="MgXlGDydDEbSnXE4OkCF-79">
          <mxGeometry x="-0.2203" y="1" relative="1" as="geometry">
            <mxPoint as="offset" />
          </mxGeometry>
        </mxCell>
        <mxCell id="MgXlGDydDEbSnXE4OkCF-81" value="&lt;font style=&quot;font-size: 13px;&quot;&gt;&lt;b&gt;API gateway&lt;/b&gt;&lt;/font&gt;&lt;div&gt;&lt;font style=&quot;font-size: 11px;&quot;&gt;[Component: Nginx]&lt;/font&gt;&lt;/div&gt;&lt;div&gt;&lt;font style=&quot;font-size: 12px;&quot;&gt;&lt;br&gt;&lt;/font&gt;&lt;/div&gt;&lt;div&gt;&lt;font style=&quot;font-size: 12px;&quot;&gt;Intercepts API calls and directs them to the appropriate backend service&lt;br&gt;&lt;/font&gt;&lt;/div&gt;" style="ellipse;whiteSpace=wrap;html=1;aspect=fixed;fillColor=#DAE8FC;" vertex="1" parent="1">
          <mxGeometry x="686" y="40" width="147" height="147" as="geometry" />
        </mxCell>
        <mxCell id="MgXlGDydDEbSnXE4OkCF-82" value="" style="endArrow=none;dashed=1;html=1;dashPattern=1 3;strokeWidth=2;rounded=0;" edge="1" parent="1">
          <mxGeometry width="50" height="50" relative="1" as="geometry">
            <mxPoint x="330" y="360" as="sourcePoint" />
            <mxPoint x="330" y="30" as="targetPoint" />
          </mxGeometry>
        </mxCell>
        <mxCell id="MgXlGDydDEbSnXE4OkCF-83" value="" style="endArrow=none;dashed=1;html=1;dashPattern=1 3;strokeWidth=2;rounded=0;" edge="1" parent="1">
          <mxGeometry width="50" height="50" relative="1" as="geometry">
            <mxPoint x="330" y="31.819999999999993" as="sourcePoint" />
            <mxPoint x="1180" y="32" as="targetPoint" />
          </mxGeometry>
        </mxCell>
        <mxCell id="MgXlGDydDEbSnXE4OkCF-84" value="" style="endArrow=none;dashed=1;html=1;dashPattern=1 3;strokeWidth=2;rounded=0;" edge="1" parent="1">
          <mxGeometry width="50" height="50" relative="1" as="geometry">
            <mxPoint x="1179" y="361" as="sourcePoint" />
            <mxPoint x="1179" y="31" as="targetPoint" />
          </mxGeometry>
        </mxCell>
        <mxCell id="MgXlGDydDEbSnXE4OkCF-85" value="" style="endArrow=none;dashed=1;html=1;dashPattern=1 3;strokeWidth=2;rounded=0;" edge="1" parent="1">
          <mxGeometry width="50" height="50" relative="1" as="geometry">
            <mxPoint x="329.5" y="360" as="sourcePoint" />
            <mxPoint x="1179.5" y="360.18" as="targetPoint" />
          </mxGeometry>
        </mxCell>
        <mxCell id="MgXlGDydDEbSnXE4OkCF-86" value="Backend application" style="text;html=1;align=left;verticalAlign=middle;whiteSpace=wrap;rounded=0;" vertex="1" parent="1">
          <mxGeometry x="340" y="32" width="120" height="30" as="geometry" />
        </mxCell>
        <mxCell id="MgXlGDydDEbSnXE4OkCF-87" value="&lt;font size=&quot;1&quot;&gt;&lt;b style=&quot;font-size: 13px;&quot;&gt;Message broker&lt;/b&gt;&lt;/font&gt;&lt;div&gt;&lt;font style=&quot;&quot;&gt;&lt;font style=&quot;font-size: 11px;&quot;&gt;[Component: RabbitMQ]&lt;/font&gt;&lt;b style=&quot;font-size: 13px;&quot;&gt;&lt;br&gt;&lt;/b&gt;&lt;/font&gt;&lt;/div&gt;" style="ellipse;whiteSpace=wrap;html=1;aspect=fixed;fillColor=#DAE8FC;" vertex="1" parent="1">
          <mxGeometry x="950" y="985" width="110" height="110" as="geometry" />
        </mxCell>
        <mxCell id="MgXlGDydDEbSnXE4OkCF-88" value="&lt;font size=&quot;1&quot;&gt;&lt;b style=&quot;font-size: 13px;&quot;&gt;Message broker&lt;/b&gt;&lt;/font&gt;&lt;div&gt;&lt;font style=&quot;&quot;&gt;&lt;font style=&quot;font-size: 11px;&quot;&gt;[Component: RabbitMQ]&lt;/font&gt;&lt;b style=&quot;font-size: 13px;&quot;&gt;&lt;br&gt;&lt;/b&gt;&lt;/font&gt;&lt;/div&gt;" style="ellipse;whiteSpace=wrap;html=1;aspect=fixed;fillColor=#DAE8FC;" vertex="1" parent="1">
          <mxGeometry x="1280" y="983" width="110" height="110" as="geometry" />
        </mxCell>
        <mxCell id="MgXlGDydDEbSnXE4OkCF-89" style="rounded=0;orthogonalLoop=1;jettySize=auto;html=1;entryX=0.5;entryY=0;entryDx=0;entryDy=0;dashed=1;" edge="1" parent="1" source="MgXlGDydDEbSnXE4OkCF-94" target="MgXlGDydDEbSnXE4OkCF-48">
          <mxGeometry relative="1" as="geometry" />
        </mxCell>
        <mxCell id="MgXlGDydDEbSnXE4OkCF-90" style="rounded=0;orthogonalLoop=1;jettySize=auto;html=1;entryX=0.5;entryY=0;entryDx=0;entryDy=0;dashed=1;" edge="1" parent="1" source="MgXlGDydDEbSnXE4OkCF-94" target="MgXlGDydDEbSnXE4OkCF-51">
          <mxGeometry relative="1" as="geometry" />
        </mxCell>
        <mxCell id="MgXlGDydDEbSnXE4OkCF-91" style="rounded=0;orthogonalLoop=1;jettySize=auto;html=1;dashed=1;" edge="1" parent="1" source="MgXlGDydDEbSnXE4OkCF-94" target="MgXlGDydDEbSnXE4OkCF-45">
          <mxGeometry relative="1" as="geometry" />
        </mxCell>
        <mxCell id="MgXlGDydDEbSnXE4OkCF-92" style="rounded=0;orthogonalLoop=1;jettySize=auto;html=1;entryX=0.5;entryY=0;entryDx=0;entryDy=0;dashed=1;" edge="1" parent="1" source="MgXlGDydDEbSnXE4OkCF-94" target="MgXlGDydDEbSnXE4OkCF-54">
          <mxGeometry relative="1" as="geometry" />
        </mxCell>
        <mxCell id="MgXlGDydDEbSnXE4OkCF-93" style="rounded=0;orthogonalLoop=1;jettySize=auto;html=1;entryX=0.5;entryY=0;entryDx=0;entryDy=0;dashed=1;" edge="1" parent="1" source="MgXlGDydDEbSnXE4OkCF-94" target="MgXlGDydDEbSnXE4OkCF-57">
          <mxGeometry relative="1" as="geometry" />
        </mxCell>
        <mxCell id="MgXlGDydDEbSnXE4OkCF-94" value="&lt;font color=&quot;#ffffff&quot; style=&quot;font-size: 13px;&quot;&gt;&lt;b&gt;API gateway&lt;/b&gt;&lt;/font&gt;&lt;div&gt;&lt;font color=&quot;#ffffff&quot; style=&quot;font-size: 11px;&quot;&gt;[Component: Nginx]&lt;/font&gt;&lt;/div&gt;&lt;div&gt;&lt;font color=&quot;#ffffff&quot; style=&quot;font-size: 12px;&quot;&gt;&lt;br&gt;&lt;/font&gt;&lt;/div&gt;&lt;div&gt;&lt;font style=&quot;font-size: 12px;&quot;&gt;&lt;font color=&quot;#ffffff&quot;&gt;Intercepts API calls and directs them to the appropriate backend service&lt;/font&gt;&lt;br&gt;&lt;/font&gt;&lt;/div&gt;" style="ellipse;whiteSpace=wrap;html=1;aspect=fixed;fillColor=#0050EF;" vertex="1" parent="1">
          <mxGeometry x="840" y="550" width="147" height="147" as="geometry" />
        </mxCell>
        <mxCell id="MgXlGDydDEbSnXE4OkCF-95" value="" style="endArrow=none;dashed=1;html=1;dashPattern=1 3;strokeWidth=2;rounded=0;" edge="1" parent="1">
          <mxGeometry width="50" height="50" relative="1" as="geometry">
            <mxPoint x="290" y="1320" as="sourcePoint" />
            <mxPoint x="290" y="810" as="targetPoint" />
          </mxGeometry>
        </mxCell>
        <mxCell id="MgXlGDydDEbSnXE4OkCF-96" value="" style="endArrow=none;dashed=1;html=1;dashPattern=1 3;strokeWidth=2;rounded=0;" edge="1" parent="1">
          <mxGeometry width="50" height="50" relative="1" as="geometry">
            <mxPoint x="700" y="1321" as="sourcePoint" />
            <mxPoint x="700" y="811" as="targetPoint" />
          </mxGeometry>
        </mxCell>
        <mxCell id="MgXlGDydDEbSnXE4OkCF-97" value="&lt;font size=&quot;1&quot;&gt;&lt;b style=&quot;font-size: 13px;&quot;&gt;Message broker&lt;/b&gt;&lt;/font&gt;&lt;div&gt;&lt;font style=&quot;&quot;&gt;&lt;font style=&quot;font-size: 11px;&quot;&gt;[Component: RabbitMQ]&lt;/font&gt;&lt;b style=&quot;font-size: 13px;&quot;&gt;&lt;br&gt;&lt;/b&gt;&lt;/font&gt;&lt;/div&gt;" style="ellipse;whiteSpace=wrap;html=1;aspect=fixed;fillColor=#DAE8FC;" vertex="1" parent="1">
          <mxGeometry x="611" y="988" width="110" height="110" as="geometry" />
        </mxCell>
        <mxCell id="MgXlGDydDEbSnXE4OkCF-98" value="" style="endArrow=none;dashed=1;html=1;dashPattern=1 3;strokeWidth=2;rounded=0;" edge="1" parent="1">
          <mxGeometry width="50" height="50" relative="1" as="geometry">
            <mxPoint x="289" y="815" as="sourcePoint" />
            <mxPoint x="700" y="816" as="targetPoint" />
          </mxGeometry>
        </mxCell>
        <mxCell id="MgXlGDydDEbSnXE4OkCF-99" value="" style="endArrow=none;dashed=1;html=1;dashPattern=1 3;strokeWidth=2;rounded=0;" edge="1" parent="1">
          <mxGeometry width="50" height="50" relative="1" as="geometry">
            <mxPoint x="289.5" y="1319" as="sourcePoint" />
            <mxPoint x="700.5" y="1320" as="targetPoint" />
          </mxGeometry>
        </mxCell>
        <mxCell id="MgXlGDydDEbSnXE4OkCF-100" value="Connections microservice" style="text;html=1;align=left;verticalAlign=middle;whiteSpace=wrap;rounded=0;" vertex="1" parent="1">
          <mxGeometry x="294" y="1290" width="164" height="30" as="geometry" />
        </mxCell>
        <mxCell id="MgXlGDydDEbSnXE4OkCF-101" value="" style="endArrow=none;dashed=1;html=1;dashPattern=1 3;strokeWidth=2;rounded=0;" edge="1" parent="1">
          <mxGeometry width="50" height="50" relative="1" as="geometry">
            <mxPoint x="700" y="1320" as="sourcePoint" />
            <mxPoint x="1000" y="1321" as="targetPoint" />
          </mxGeometry>
        </mxCell>
        <mxCell id="MgXlGDydDEbSnXE4OkCF-102" value="" style="endArrow=none;dashed=1;html=1;dashPattern=1 3;strokeWidth=2;rounded=0;" edge="1" parent="1">
          <mxGeometry width="50" height="50" relative="1" as="geometry">
            <mxPoint x="699" y="816" as="sourcePoint" />
            <mxPoint x="999" y="817" as="targetPoint" />
          </mxGeometry>
        </mxCell>
        <mxCell id="MgXlGDydDEbSnXE4OkCF-103" value="Account microservice" style="text;html=1;align=left;verticalAlign=middle;whiteSpace=wrap;rounded=0;" vertex="1" parent="1">
          <mxGeometry x="705" y="1294.5" width="164" height="30" as="geometry" />
        </mxCell>
        <mxCell id="MgXlGDydDEbSnXE4OkCF-104" value="" style="endArrow=none;dashed=1;html=1;dashPattern=1 3;strokeWidth=2;rounded=0;" edge="1" parent="1">
          <mxGeometry width="50" height="50" relative="1" as="geometry">
            <mxPoint x="996" y="817" as="sourcePoint" />
            <mxPoint x="1330" y="817" as="targetPoint" />
          </mxGeometry>
        </mxCell>
        <mxCell id="MgXlGDydDEbSnXE4OkCF-105" value="" style="endArrow=none;dashed=1;html=1;dashPattern=1 3;strokeWidth=2;rounded=0;" edge="1" parent="1">
          <mxGeometry width="50" height="50" relative="1" as="geometry">
            <mxPoint x="996" y="1321" as="sourcePoint" />
            <mxPoint x="1330" y="1321" as="targetPoint" />
          </mxGeometry>
        </mxCell>
        <mxCell id="MgXlGDydDEbSnXE4OkCF-106" value="Post microservice" style="text;html=1;align=left;verticalAlign=middle;whiteSpace=wrap;rounded=0;" vertex="1" parent="1">
          <mxGeometry x="1003" y="1295" width="164" height="30" as="geometry" />
        </mxCell>
        <mxCell id="MgXlGDydDEbSnXE4OkCF-107" value="" style="endArrow=none;dashed=1;html=1;dashPattern=1 3;strokeWidth=2;rounded=0;" edge="1" parent="1">
          <mxGeometry width="50" height="50" relative="1" as="geometry">
            <mxPoint x="1324" y="817" as="sourcePoint" />
            <mxPoint x="1658" y="817" as="targetPoint" />
          </mxGeometry>
        </mxCell>
        <mxCell id="MgXlGDydDEbSnXE4OkCF-108" value="" style="endArrow=none;dashed=1;html=1;dashPattern=1 3;strokeWidth=2;rounded=0;" edge="1" parent="1">
          <mxGeometry width="50" height="50" relative="1" as="geometry">
            <mxPoint x="1324.5" y="1321.26" as="sourcePoint" />
            <mxPoint x="1658.5" y="1321.26" as="targetPoint" />
          </mxGeometry>
        </mxCell>
        <mxCell id="MgXlGDydDEbSnXE4OkCF-109" value="" style="endArrow=none;dashed=1;html=1;dashPattern=1 3;strokeWidth=2;rounded=0;" edge="1" parent="1">
          <mxGeometry width="50" height="50" relative="1" as="geometry">
            <mxPoint x="1653.9999999999998" y="1322" as="sourcePoint" />
            <mxPoint x="1653.9999999999998" y="812" as="targetPoint" />
          </mxGeometry>
        </mxCell>
        <mxCell id="MgXlGDydDEbSnXE4OkCF-110" value="Comment microservice" style="text;html=1;align=left;verticalAlign=middle;whiteSpace=wrap;rounded=0;" vertex="1" parent="1">
          <mxGeometry x="1330" y="1294.5" width="164" height="30" as="geometry" />
        </mxCell>
        <mxCell id="MgXlGDydDEbSnXE4OkCF-111" value="&lt;div style=&quot;box-sizing:border-box;width:100%;background:#e4e4e4;padding:2px;&quot;&gt;account (SQL)&lt;/div&gt;&lt;table style=&quot;width:100%;font-size:1em;&quot; cellpadding=&quot;2&quot; cellspacing=&quot;0&quot;&gt;&lt;tbody&gt;&lt;tr&gt;&lt;td&gt;PK&lt;/td&gt;&lt;td&gt;id&lt;/td&gt;&lt;/tr&gt;&lt;tr&gt;&lt;td&gt;&lt;br&gt;&lt;/td&gt;&lt;td&gt;username&lt;/td&gt;&lt;/tr&gt;&lt;tr&gt;&lt;td&gt;&lt;br&gt;&lt;/td&gt;&lt;td&gt;email&lt;/td&gt;&lt;/tr&gt;&lt;tr&gt;&lt;td&gt;&lt;/td&gt;&lt;td&gt;password&lt;/td&gt;&lt;/tr&gt;&lt;tr&gt;&lt;td&gt;&lt;br&gt;&lt;/td&gt;&lt;td&gt;first_name&lt;br&gt;&lt;/td&gt;&lt;/tr&gt;&lt;tr&gt;&lt;td&gt;&lt;br&gt;&lt;/td&gt;&lt;td&gt;last_name&lt;/td&gt;&lt;/tr&gt;&lt;tr&gt;&lt;td&gt;&lt;br&gt;&lt;/td&gt;&lt;td&gt;created_at&lt;/td&gt;&lt;/tr&gt;&lt;tr&gt;&lt;td&gt;&lt;br&gt;&lt;/td&gt;&lt;td&gt;updated_at&lt;/td&gt;&lt;/tr&gt;&lt;tr&gt;&lt;td&gt;&lt;br&gt;&lt;/td&gt;&lt;td&gt;is_active&lt;/td&gt;&lt;/tr&gt;&lt;tr&gt;&lt;td&gt;&lt;br&gt;&lt;/td&gt;&lt;td&gt;is_verified&lt;/td&gt;&lt;/tr&gt;&lt;/tbody&gt;&lt;/table&gt;" style="verticalAlign=top;align=left;overflow=fill;html=1;whiteSpace=wrap;" vertex="1" parent="1">
          <mxGeometry x="740" y="1410" width="230" height="234" as="geometry" />
        </mxCell>
        <mxCell id="MgXlGDydDEbSnXE4OkCF-112" value="&lt;div style=&quot;box-sizing:border-box;width:100%;background:#e4e4e4;padding:2px;&quot;&gt;profile (SQL)&lt;/div&gt;&lt;table style=&quot;width:100%;font-size:1em;&quot; cellpadding=&quot;2&quot; cellspacing=&quot;0&quot;&gt;&lt;tbody&gt;&lt;tr&gt;&lt;td&gt;PK&lt;/td&gt;&lt;td&gt;id&lt;/td&gt;&lt;/tr&gt;&lt;tr&gt;&lt;td&gt;FK&lt;/td&gt;&lt;td&gt;user_id&lt;/td&gt;&lt;/tr&gt;&lt;tr&gt;&lt;td&gt;&lt;br&gt;&lt;/td&gt;&lt;td&gt;profile_picture&lt;br&gt;&lt;/td&gt;&lt;/tr&gt;&lt;tr&gt;&lt;td&gt;&lt;/td&gt;&lt;td&gt;bio&lt;br&gt;&lt;/td&gt;&lt;/tr&gt;&lt;tr&gt;&lt;td&gt;&lt;br&gt;&lt;/td&gt;&lt;td&gt;birthday&lt;/td&gt;&lt;/tr&gt;&lt;tr&gt;&lt;td&gt;&lt;br&gt;&lt;/td&gt;&lt;td&gt;language&lt;br&gt;&lt;/td&gt;&lt;/tr&gt;&lt;tr&gt;&lt;td&gt;&lt;br&gt;&lt;/td&gt;&lt;td&gt;privacy_settings&lt;br&gt;&lt;/td&gt;&lt;/tr&gt;&lt;tr&gt;&lt;td&gt;&lt;br&gt;&lt;/td&gt;&lt;td&gt;followers_count&lt;br&gt;&lt;/td&gt;&lt;/tr&gt;&lt;tr&gt;&lt;td&gt;&lt;br&gt;&lt;/td&gt;&lt;td&gt;following_count&lt;/td&gt;&lt;/tr&gt;&lt;tr&gt;&lt;td&gt;&lt;br&gt;&lt;/td&gt;&lt;td&gt;friends_count&lt;/td&gt;&lt;/tr&gt;&lt;tr&gt;&lt;td&gt;&lt;br&gt;&lt;/td&gt;&lt;td&gt;mutual_friends_count&lt;/td&gt;&lt;/tr&gt;&lt;/tbody&gt;&lt;/table&gt;" style="verticalAlign=top;align=left;overflow=fill;html=1;whiteSpace=wrap;" vertex="1" parent="1">
          <mxGeometry x="181" y="1410" width="230" height="230" as="geometry" />
        </mxCell>
        <mxCell id="MgXlGDydDEbSnXE4OkCF-113" value="&lt;div style=&quot;box-sizing:border-box;width:100%;background:#e4e4e4;padding:2px;&quot;&gt;follow (SQL)&lt;/div&gt;&lt;table style=&quot;width:100%;font-size:1em;&quot; cellpadding=&quot;2&quot; cellspacing=&quot;0&quot;&gt;&lt;tbody&gt;&lt;tr&gt;&lt;td&gt;PK&lt;/td&gt;&lt;td&gt;id&lt;/td&gt;&lt;/tr&gt;&lt;tr&gt;&lt;td&gt;FK&lt;/td&gt;&lt;td&gt;follower_id&lt;/td&gt;&lt;/tr&gt;&lt;tr&gt;&lt;td&gt;FK&lt;/td&gt;&lt;td&gt;followed_id&lt;/td&gt;&lt;/tr&gt;&lt;tr&gt;&lt;td&gt;&lt;br&gt;&lt;/td&gt;&lt;td&gt;created_at&lt;/td&gt;&lt;/tr&gt;&lt;/tbody&gt;&lt;/table&gt;" style="verticalAlign=top;align=left;overflow=fill;html=1;whiteSpace=wrap;" vertex="1" parent="1">
          <mxGeometry x="444" y="1410" width="176" height="90" as="geometry" />
        </mxCell>
        <mxCell id="MgXlGDydDEbSnXE4OkCF-114" value="&lt;div style=&quot;box-sizing:border-box;width:100%;background:#e4e4e4;padding:2px;&quot;&gt;friend (SQL)&lt;/div&gt;&lt;table style=&quot;width:100%;font-size:1em;&quot; cellpadding=&quot;2&quot; cellspacing=&quot;0&quot;&gt;&lt;tbody&gt;&lt;tr&gt;&lt;td&gt;PK&lt;/td&gt;&lt;td&gt;id&lt;/td&gt;&lt;/tr&gt;&lt;tr&gt;&lt;td&gt;FK&lt;/td&gt;&lt;td&gt;user_1_id&lt;/td&gt;&lt;/tr&gt;&lt;tr&gt;&lt;td&gt;FK&lt;/td&gt;&lt;td&gt;user_2_id&lt;/td&gt;&lt;/tr&gt;&lt;tr&gt;&lt;td&gt;&lt;br&gt;&lt;/td&gt;&lt;td&gt;created_at&lt;/td&gt;&lt;/tr&gt;&lt;tr&gt;&lt;td&gt;&lt;br&gt;&lt;/td&gt;&lt;td&gt;status&lt;/td&gt;&lt;/tr&gt;&lt;/tbody&gt;&lt;/table&gt;" style="verticalAlign=top;align=left;overflow=fill;html=1;whiteSpace=wrap;" vertex="1" parent="1">
          <mxGeometry x="444" y="1530" width="176" height="110" as="geometry" />
        </mxCell>
        <mxCell id="MgXlGDydDEbSnXE4OkCF-115" value="&lt;div style=&quot;box-sizing:border-box;width:100%;background:#e4e4e4;padding:2px;&quot;&gt;post (NoSQL)&lt;/div&gt;&lt;table style=&quot;width:100%;font-size:1em;&quot; cellpadding=&quot;2&quot; cellspacing=&quot;0&quot;&gt;&lt;tbody&gt;&lt;tr&gt;&lt;td&gt;PK&lt;/td&gt;&lt;td&gt;id&lt;/td&gt;&lt;/tr&gt;&lt;tr&gt;&lt;td&gt;FK&lt;/td&gt;&lt;td&gt;user_id&lt;/td&gt;&lt;/tr&gt;&lt;tr&gt;&lt;td&gt;&lt;br&gt;&lt;/td&gt;&lt;td&gt;created_at&lt;/td&gt;&lt;/tr&gt;&lt;tr&gt;&lt;td&gt;&lt;/td&gt;&lt;td&gt;updated_at&lt;/td&gt;&lt;/tr&gt;&lt;tr&gt;&lt;td&gt;&lt;br&gt;&lt;/td&gt;&lt;td&gt;content (JSON)&lt;/td&gt;&lt;/tr&gt;&lt;/tbody&gt;&lt;/table&gt;" style="verticalAlign=top;align=left;overflow=fill;html=1;whiteSpace=wrap;" vertex="1" parent="1">
          <mxGeometry x="1050" y="1410" width="230" height="130" as="geometry" />
        </mxCell>
        <mxCell id="MgXlGDydDEbSnXE4OkCF-116" value="&lt;div style=&quot;box-sizing:border-box;width:100%;background:#e4e4e4;padding:2px;&quot;&gt;comment (NoSQL)&lt;/div&gt;&lt;table style=&quot;width:100%;font-size:1em;&quot; cellpadding=&quot;2&quot; cellspacing=&quot;0&quot;&gt;&lt;tbody&gt;&lt;tr&gt;&lt;td&gt;PK&lt;/td&gt;&lt;td&gt;id&lt;/td&gt;&lt;/tr&gt;&lt;tr&gt;&lt;td&gt;FK&lt;/td&gt;&lt;td&gt;post_id&lt;/td&gt;&lt;/tr&gt;&lt;tr&gt;&lt;td&gt;FK&lt;/td&gt;&lt;td&gt;user_id&lt;/td&gt;&lt;/tr&gt;&lt;tr&gt;&lt;td&gt;&lt;br&gt;&lt;/td&gt;&lt;td&gt;created_at&lt;/td&gt;&lt;/tr&gt;&lt;tr&gt;&lt;td&gt;&lt;/td&gt;&lt;td&gt;updated_at&lt;/td&gt;&lt;/tr&gt;&lt;tr&gt;&lt;td&gt;&lt;br&gt;&lt;/td&gt;&lt;td&gt;content (JSON)&lt;/td&gt;&lt;/tr&gt;&lt;/tbody&gt;&lt;/table&gt;" style="verticalAlign=top;align=left;overflow=fill;html=1;whiteSpace=wrap;" vertex="1" parent="1">
          <mxGeometry x="1379.5" y="1410" width="230" height="130" as="geometry" />
        </mxCell>
        <mxCell id="MgXlGDydDEbSnXE4OkCF-117" value="" style="shape=image;verticalLabelPosition=bottom;labelBackgroundColor=default;verticalAlign=top;aspect=fixed;imageAspect=0;image=data:image/png,iVBORw0KGgoAAAANSUhEUgAAAdgAAAHHCAYAAAAcWUnXAAAABHNCSVQICAgIfAhkiAAAABl0RVh0U29mdHdhcmUAZ25vbWUtc2NyZWVuc2hvdO8Dvz4AAAAqdEVYdENyZWF0aW9uIFRpbWUAVHVlIDA1IE5vdiAyMDI0IDEzOjMxOjM5IENFVAqOcOMAACAASURBVHic7N13eFRV+sDx7/SZJDNJJj2BAAk19Ca9SW+KigJWENuCWHYFda3r4tpXce3+WFHWAiIIAtKRKgiBSAstgQAJpPc29ffHhAljAkkwA0Hfz/PwwMw999xz7wz3nXPuvedVBAUFOxFCCCFEvVJe7QYIIYQQf0QSYIUQQggvkAArhBBCeIH6UgsVCgVKpQqVWoVarUahUFy5lgkhhBDXsGoDrEKhQK3WoNVpr3yLhBBCiD+AKgFWpVKi0xuktyqEEEL8Dh4BVqVSoTcYrl5rhBBCiD8I901OKpVSgqsQQghRT5RUXHPV6SW4CiGEEPVFCaBWa+SaqxBCCFGPlAqFQu4WFkIIIeqZUqlUXe02CCGEEH84SpVaAqwQQghR35Rq9SUncxJCCCHEZVDKzU1CCCFE/ZPJ/oUQQggvkAArhBBCeIEEWCGEEMILJMAKIYQQXiABVgghhPACCbBCCCGEF0iAFUIIIbxAAqwQQgjhBV6ZxsnHx4f/+++n/PzzDv4z5z8AaDQabhx3I3379sEcZKawsJDdu3azcMG3FBcXe6zv6+vL2BvG0P266wgJCaa0pIwjRxJZtmw5x48d9yg7/eFp9Onbh507fmHOO3OqXXbfvfdTUlLijV0VQgghqnXFerAP/uVBbr7lJnR6HYcPH8bhcDJ02FCefGoWSmVlM0JCQ/jXqy9zw4034Ofrx7Hjx8nPz6Nb9+68+I8XGDx4cLX19+h5Ha3btLpSuyOEEEJc0hWZiNjf35/evXtx8MBB3nj9TSwWCyqVkodnPEyPnj2IaxvHgf0HAJjxyAxCQkL4btF3LP1+GTabDYDmsbE8+tfHmHzvZJKSkjh58qS7fqfTic1m48477+K5Z5/D6XReid0SQgghLuqK9GDVFRl7MrOysFgsANjtDj7//Atm//NlkpOSAWjXvh3Nm8eyfft2vlu02B1cAY4nJfHBf95HpVIy5oYxVbaxYsVKYmKb0adfnyuxS0IIIcQlXZEAm52dw8mTJxkwoD9TptxDZGQkAHm5eRw6eMh9fbRjhw4ArF+7odp6Eg8fJi0tjY4dO3i8r1AoWLVyFfl5eUycOAGdTuf1fRJCCCEu5Ypdg33rjX9z+PBhhg4fxpv/foNXX3+VESOHo1JV5qMNDgkGIC0t7aL1pKWdxdfXF4PB4PG+zWbj228XYTabGT1mlBf3RAghhKjZFQuw2dnZ/PMfs3n6yb+zbOky9Dodd99zN/946R8X9DhrnzqvuuusP23cxKlTpxg7dgyBgYE4HXItVgghxNVxxZ+DTUlJ4ZuvF/DXx//G4u+WEBPbjDFjRwOQlZkJQGRU5EXXj4qKpLi4mLKysirLHA4H/5v/JTq9ngmTJmCxWr24J0IIIcTF/e4A27FTR5578TmaNmvmfs/HxweAslJXEOzRswezX55N23Zt3WUcDgerV60GIDo6GoCEX/cBMGTokGq31SauDREREfxaUa46B/YfIGFvAv369aVRo4sHaiGEEMKbfn8P1uGkTevWjBk72v08a/8B/QA4c/oMAGVlZcTENmPSpEkYTX7uVfv16wtAVnYWAAcPHOD4seP06tWT2267FbW68imili1b8vCM6djtDn5Y+sMlm/Tl/77C4XDSspU8FyuEEOLq+N3Pwe4/cIBjx47Ru3cvYmNjKC8vJzo6moKCArZt3QrArwm/snfPXjp36cycd9/lzOnT+Af4ExISQn5+PiuXr3TX95933+PZ5/7OuJvHMXT4UFJTUzEajUREROBwOJj7f3NJSUm5ZJtSU1PZsH49Q4cN/b27J4QQQlwWlX9AwIu/pwKn08me3fH4mYw0bhSFv38ABw8d4r133yMrK8td7pedv2Cz2wkNDSUqKhKLxcqe3fF89OFHZGZWlispKWHzpi0AhASHENUoCqVSyf79+/n4w4/ZE7/XY/vXXded6Oholi39AesF11yTko4zePBgNBpNlWVCCCGEtymimzSVW22FEEKIeibZdIQQQggvkAArhBBCeIEEWCGEEMILJMAKIYQQXiABVgghhPACCbBCCCGEF0iAFUIIIbxAAqwQQgjhBRJghRBCCC+QACuEEEJ4gQRYIYQQwgskwAohhBBeIAFWCCGE8AIJsEIIIYQXSIAVQgghvEACrBBCCOEFEmCFEEIIL5AAK4QQQniBBFghhBDCCyTACiGEEF4gAVYIIYTwAgmwQgghhBdIgBVCCCG8QAKsEEII4QUSYIUQQggvkAArhBBCeIEEWCGEEMILJMAKIYQQXiABVgghhPACCbBCCCGEF0iAFUIIIbxAAqwQQgjhBRJghRBCCC+QACuEEEJ4gQRYIYQQwgskwAohhBBeIAFWCCGE8AIJsEIIIYQXSIAVQgghvEACrBBCCOEFEmCFEEIIL1DXZ2VNmjThgQfvJyw8jHnzPmfr5q31Wb0QQghxzajXADvx9gns2r2b7xd/X5/VCiGEENeceh0iNhlNnEg6UZ9VCiGEENckuQYrhBBCeEG9BdiAwADMQWYKiwrqq0ohhBDimlUvAbZNmza8/8F7HNh/gGQZIhZCCCHqJ8AmJiby2COP06lzJ6IaRdVHlUIIIcQ1rd6GiDMzM8lIzyDYHFRfVQohhBDXrPq/yUmhqPcqhRBCiGtNvQZYh9MJEl+FEEKI+g2w6efOEtemDQrpxQohhPiTq9cAu3DhIlq1bsmncz+hb/++9Vm1EEIIcU1RRDdp6rzajRBCCCH+aGQmJyGEEMILJMAKIYQQXiABVgghhPACCbBCCCGEF0iA9YIIo4rJXYzo1fK4khBC/Fk1mADrq1Vw/PFo1Ero0UjP8jsjrnaTLttdHY08OyCQ3tG6GssOjTWwdnKk+/WVOA6Nu8Yw5qXbAehyax96Tr6+ShmDvw8jnr2N3lMHV1mmVCrpOrEvt38yjbu/eIxRL07E3CTEo0zLQe2Z+MGDTP7ycca8dDtBzcKqbYtCoWDMS7cz6sWJHu93HNeTqQtnevz5bZkbX72LyA5NAJi6cCZa35qPtxBCXCnqq92AhibcqGLrfVF0fP80xZbLe4Lp0/hC9qWXs/lkWb2370qIaNeEQY+MBoWCgrPZVZa3Hd2V2L5xrHvze0qyC2k7tjtDn7qFRY98it1qp1mvVnSb1I8Nby+jMD2fuBGdGfHMeBZM+xibxeZRV/P+bQlrHcXZQ6c93jeGBfDr9zvYt/QX93tOu8OLey2EEPWrwfRg/0hyS+2sOlaK7RqNB837t2HbJ2s4ueNwtcv9I8zsWbiVjKNpFGUXsmv+RnwCfPGPciV6yE/LYd2b33Mu8QzFOYUkLP4ZvckHH7OfRz1aHx3d7xxAys6jVbZhDDWRm5KFpbjc/cdaZvXSHgshRP1rMD1YhxPSCmw4UVBud5JeXNnT0akVHJzRmOnLs/hrb38amdTsT7fwwoYcjmS5TroqpYKHuhuZ2N5IkI+S5Fwb7+3IY9WxUnc9faL1PNE3gOZmDbmldj7fW8TcPZUJ4hdNCqdTuBaAX6c3BmDF0RIeXZFVq33oFqXjm9tcQ6ElVgcd3jtTpUz/Jnpm9Q8kJlBNcq6NNcdLan0cLvTwIw8TExPD0089TXlZea3ad56t3E5pXjEAluIynE7Pnvq2T9bisNmJ6tik2vW3frK66ptOp7uHmZOS6X5bqVbRdmRX8lNzKMzI91il68R+ZBw+w+mEZGL7tfVYZgwLILxtY9qN6Y7WV8epPUnEf70FW3llkC3JKcZe0SMuyirA6ZA5U4QQDUeDCbClVif956YBkHC2nKlLMquUebCbiUdXZJFRbGdqVxOf3RTK0M/TKLY4md7DxI2tfXl0ZRbHs630barntWHBFJZnsu1UGRolfHxjCM+vz2HVsVJaBWuYMyqINUklnM53naQnLEgnzE/F5qmRdH7/DKU2B3U5Z+9OLaf1nFO0C9XyxfjQKstjzBo+uCGEF9bnsC65lHahWt4cEUTRBUPRtTkOADabDZvVellB5eyBFM4eSAHgwMr4KssdNnud6mvctTmlecXknfEcTu44rgddJrimzFzx4jcebTU3CaHFgLZ897fPaFRNIC84l4cpLIAtH/6ISqui171D6feXEWx85wd3mbWvL3b/e8G0j+vUZiGE8LYGE2Br49XNuRyu6LG+uS2PkS0M9G9q4MejJdzZ0cis1dnsSXP15lYeKSEuRMudnYxsO1WGzQn5ZXZizBpC/crZl25xB7Lz7A6nKyMQ4MB5WUO8NgfYLxLzbonzZUNSKd8dcvUet50q4//iC5nY3q/6FS7how8+qnvjvMDg70PPKYPZ9dXmKj3hxLUJpOxOIrZfG4bOvInFf51LaUEpCoWCPvcN5dclOynOKqi23lWzF3q83vz+Sm5+awo7TOsoLSitdh0hhGhIrqlrsCfzKodLnU5IybcT4adCr1ZgNig5nuN5jS4px0qkUeUuf8eiDAL1Sj4cG8KeaY14e2QQPpordwgijSpO5Hu28UTutXtd0SfQj5HPT+D07mMkbTlUZbmluJy8M1nEf72FkrwiGndrAUCLAW3RGQ3sX77ronUrlJ6POOWn5eDEiU+QyQt7IoQQ9e+aCrDNAis73AoFNPFXca7YTpnNSXapgxZmjUf5WLOGtAJXUFYpFTicCp5Zl8PIL84yaG4qLYK0TGjn67GO01lxYvfC5byzhXaa+Xu2McZ8TQ0iuAXHhnHDv+7iTMIJts9d77Gs19QhtBzY3uM9BQrOj7e3HdMNvxB/7vi/6dw17xF6ThlCWOso7pr3CDo/A6bwAO7+/FF0vnr3+qaIQBQoKM6uvscrhBANzTV1dv/7gECeXptDRpGde7sY0WuUbEp2DRfOTyjg2YGBFFocJOXY6BOt466ORqb94LqGGeSjZOVd4fx9bQ6rj5fgr1Oi0ygotnqOA2eX2Ci1OhnXxo81SSUoFQrSi6q/0ei3lArXH1VFjFZX/HyxO1096CWJxXx/ezjj2/qxIbmEdqFa7utqorC87tH8oWkP0axZM55/9nnKy+t2k1NNdL56FCoFKo3r66E3GXDYHViKXdtp3j+O3vcNZffXW0jelojeZADAWmrFbrVReC6P7nf2pySviLzUHFoNao+P2ZdTe44DsOZf36FQVf62i+nTmibXtWDj2z9gKSmjvKiUnJRMBswYxS/zN6HUqOgzdQjJ2xMpu4zh4WHDh5KTk8fuXRfvMQshRH27pgLswv3FvDc6iDA/NfvSLUxenEGx1RWcPthZgNOh4O2Rwe67iGetyWbbKdezqBlFdv6yLJNZ/QL411Az6UV2Vhwt5rtDnnfx2hwwa002T/cL4Kn+AXy6u4B3d+RX257fentUMKNb+rhfH340GoDn1+fw1b4ijmVbmbEik5l9A3lpcCCHMq18tKuAOzoY63wstBotOq0WvDBZ1E1vTcbXXNmmltd3ICclkyUz5wHQekgnNHotvaYMpteUyokods7bwIGV8RxYsRu71UafB4djMBnIPH6OlS8tdAfH4pxCj+2VF5Zgt9goyqw8zmtfX0Kvewdzwyt34rDZSd6WyC/zN9V5X0xGI5OnTGb+5/+7rGMhhBCX65rIB3v+MZ0Bc9NILahdb1IIgI4dOzLzySeYPm0G+Xl5V7s5Qog/kWvqGqwQdRUT04wDBw5KcBVCXHHX1BDx1fZ47wDu7uz5SM2hDAt3fJtx1dokLm3Jku9hydVuhRDiz+iaGCIWQgghrjUyRCyEEEJ4gQRYIYQQwgskwAohhBBeIAHWCyKMKiZ3MaJXe+EhVSGEENeEBnMXsa9Wwa/TG9N6zim6Rup5bmAgY/539mo367Lc1dHIA91NnMqzsiH50knXh8YamNUvkKHzXIkHrsRxaNw1ho439mT581/R5dY+aH117Ji3oUo5g8lAu7HXEf/1FhwO14xXhgBfbv9kWrX1/vTODyRtd+WQbTmwPR1v7olvkJGclAx2zNtAxtHK5AohzSPoec8ggmLCKMoqZNeXm0j55Zh7ud5ooOe9g2ncOQa7xcaRdfvYs2ibR0aeG1+9i11fbSZtXwpTF85k/pR33bNNCSHE1dZgAuwfyafxhexLL2fzyUsH14YssHEww56+hTMJJ1CoFFAxo2RZfgnzp7zrUbZ5/7Z0HNeDcxUBNKx1FD3vHczGOcvITs4gtl8bhj89nm+mfYS11IIx1J8Rz95K/IKtbJyznMAmwfR7aCQOm4PTe5IAGPzEOIqzC1gy83O0vjpuev0eTJFmNr6z7MofDCGEuAwyROwFuaV2Vh0rvax0dw2BwWRg+DPjSVy9l22frMFurcwP63Q6sRSXu/9odFq63taX9W987049F9IikvQjqZyOT6Ykt4j9y3ahUCkJjAoCoOWgDpw7dIZDP+6hKKuA0/HJ7Fv2C3EjuwAQ0a4JQU1D2frRaooy892J3GN6t0Jj0F6VYyKEEHXVYAKswwlpBTacKCi3O0kv9pwScfmdEYxpVTnPb8tgDUcebexRZnIXI+smR3JwRmOW3xlBvyZ6j+WdwrV8c1sYB2Y05qd7I5l+nT8XZkUb08qHL28NY0pnI9sfiOLoY9E81S+w1vvQLUrH8cejOf54NPseblRtmf5N9Cy/K4JDjzRm+V0RtAn1DBg1HYfzHn7kYf79zr/R6XW1bt95tnI7pXmunLSW4jLKizx72l0n9ufsgdPsW/pLjXV1Ht+bpG2JZByvHMZOP5xKUNNQ/CNcxy66W3NsFhu5qa6E7GqDBqvFM02frdSCKSwAgKgO0aT+ehKbxYZCoaDvA8P4Zf5PlOaXENa68riW5BRjt7iOT1FWwWUlnxdCCG9pMEPEpVanOwF6wtlypi7JrNP63aN0PNrLn8mLMjiea2VkC1+e6h/I1v+dxemERv5q5t0Sxuyfcpm6JIPG/mreHxtCodXBF3srJ59vFazBYjdw7+IM7E7qdKPS7tRyWs85RbtQLV+MD62yPMas4YMbQnhhfQ7rkktpF6rlzRFBFFkqA0Ntj4PNZsNmtV5WUDl7IIWzB1IAOLAy3mOZxqAlpm8b9i3dwbjX7kbroyN1fwq7vtxU5fqm1ldHbP84vnv8vx7vZx5L4/DaBMbPuQ9buRW1TsOq2QuxlloAOLXrOMOevoWIttGcPXgKY6g/7cZ0c9fvazZRVJEQoM2wTqi0ag6uiCemT2v8giqTEKx9fbH73wumfVzn4yCEEN7UYALs75VT6kClgGZBGs4W21l0sIhFB4vcy2+O82VbSqn7vcNZVj6NL2B8nK9HgPXTKnl0RRYF5Zc3vmtzuNLTVeeWOF82JJXy3SFX73HbqTL+L76Qie39ql/hEj764KPLal9NzE1CUGvVBDcNY8tHq1FpVPS8ZxCDHruB1S9/61G2afeW5J7K8siCQ8UQb5thnVj/1lJyT2cR3TWWATPGsGTmPErzijl78BS7/vcTQ54Yh0KlpCS3iIK0XEoqetXn+QT60WVCH1bNXoTD4UChUOD0RqJeIYTwgj9MgE3KsTLthywmtjfy117+6DRKvthbwPs7XdcFI40qhrfwYceDUe51lAoF+WWegTQlz3rZwbUmkUYVJ/I9h0ZP5FovWv5q0ProsVlsbJizHIfNde11wzvLmfD+Axj8fSjNr0zvF9EumqyktCp1tB3VhUOr9nJy51EA9qfl0KhjM5r3i2P/D66crIdW7SVxTQIagxYFCm7+9xT2vrkUgOKcAvzDzfSeOoRjmw6SlXwOAB+zkeLsoirbE0KIhuiaCbAWuxOdqnK4NsLPs+l6tYLjOVYeXu4aUm0VrOG7SeFsSC4jMdNCWqGddUmlPLSscshVqXBd87zQBffz1LuzhXaa+Ws83osxN6yPoDi7oNr3nU5nleFoc9NQDv24u0pZtVZTpazD6USl89xXp8OJrczC8L/fyplfT5J5zBWsU/edouO4npQVlLDpvRUAhLaKQuujJf3wmd+9j0IIcSU0mJucapKYaWF8Oz8iTWoa+6t5vLe/x/L+TQ0smRROxzAtWpWCIB8VSgWUWV290e8OFtMrWs/dnY0EGZREB2j45rYwHuhuqrc2KhWgVsL53wFqpeuPouL1ksRiBscaGN/WD7NBSf8meu7rennbf2jaQ7z2xmvodHW/yelSclIyyTudycAZozFHBxPSPJyBM0aTvP0wZYWlHmWNof4U5xRXqePkjiPEjepK4y6x+AabiBvRmci2jT2ec6Ximdrhf78VgO2frnW/f/ZACk6nk7KCEgwBvgTHhNPn/qEcWBHvvo5bF8OGD6Vb9+51Xk8IIX6PhtV9uoS3t+fz2nAzq+4OJ6PIwby9hTw3MMC9fM3xEhqZVPxnTDBmHxUncq08uSaHE3muu0xTC2xMWZzB0/0DeLJvAIUWB8sPl/BZfPU9tstq46hgRresvNP58KPRADy/Poev9hVxLNvKjBWZzOwbyEuDAzmUaeWjXQXc0cF4iVqrp9Vo0Wm14IXJola/spg+9w9lzOw7sVttJG05xO6vNnuUUSgVaPQabGVVA96R9fvQGw30vn8oPv4+5KXlsv7fS8k9leVRLiKuEQXpefw8dy2O31y4/vr+9+l571DGvXYPNouNoxv3Ef/N1jrvi8loZPKUycz//H91XlcIIX4PSVcn/tA6duzIzCefYPq0GZJ0XQhxRV0zQ8RCXI6YmGYcOHBQgqsQ4oqTHmwdPN47gLs7ez5ScyjDwh3fZly1NgkhhGiYJMAKIYQQXiBDxEIIIYQXSIAVQgghvEACrBBCCOEFDeY52D9SwvW6+G3C9Svh+hg9D3b3Z8KCdB7p6Y9Jp2T2ptx63UaPuwZis9qI/2Yro16cyMEV8aTsqpxoIqhZGL2mDCYoJoyywlKObdzP3kXb3TNA1ZRwXalU0vm23rS6vgNqvZas5HPs+Gw9OSmVM3W1HNSeLrf2Ru/vQ1ZSOj9/tp7sE+l12g+Dvw8DZoyh4Gw22+eu91imUCroMr4PrYZ0QKVVczrhBDvmrqsyIUdNgmPDuP6xG/jly02c3HG0+naYDLQbex3xX2/B4XBNnhIYHczNb06ptrylpJz5kyvz9ta0jUvtZ23E9mlD51t74xdiouBcHnu+3ebeTp8HhtF6SMcq6+Sn5bDosbm1qj+0ZSRjZ99R5f25t73h/nfLge3peHNPfIOM5KRksGPeBjIqchR3uqUnXSf0u2QbNHoNd3/xGJ9NepPQVo3oNWUwS2bOq8NREMJTgwmw15INUyKYvSmXDckNN6H6K0PNFJQ7eGVzw3s8Ra3TMOKZ8RzZsI+Nc5ZhDA1g4KNjKMsv4dDqvVCLhOttR3cltm8c6978npLsQtqO7c7Qp25h0SOfYrfaadarFd0m9WPD28soTM8nbkRnRjwzngXTPsZmqT4F4G9FtGvCoEdGg0JBwdnsKsu73NqX6G6xrPrXIizF5QyddROTPp3GZxPfqvWxaDeqK51v7eNKan8RgY2DGfb0LZxJOOEqVzFVdv6ZHL687z0AzE1CGfbULXzzlw8BcF4wnXZN26hpP2sS0jyCftNGsPn9HzmXeIbI9tEMemQMS9Pmk3Mqk53zNrDry03u8mqthtH/mMSJHUdqvQ1jWADnEs94ZFC6UFjrKHreO5iNc5aRnZxBbL82DH96PN9M+whrqYUDP+zm8NpfPdYZ/LdxFKTX7w9LIS4kQ8TiivOPNJOflkv811spzi7iXOIZjqzfR2THplDLhOv+EWb2LNxKxtE0irIL2TV/Iz4BvvhXJHXPT8th3Zvfcy7xDMU5hSQs/hm9yQcfc+0zFzXv34Ztn6zh5I7DVZZp9Braje3Gtv9bS87JDMryi9GbDCiVSqI6NK31Npr2bMUPz31FUWb1M4oZTAaGPzOexNV72fbJGuwXTJbtcDgoKyilrKAUS4nrx9751+VFpbXexqX2szbMTUM4vHYfydsPU5JbxPHNh8g4mkZkO9dMZjaLDUtxuftP+xu6k5+aU6eZuYyhJvJSsz3quTB9YkiLSNKPpHI6PpmS3CL2L9uFQqUksOL7YLPY3MemrKCUJte1wBgawM55Gy9rn4WojQbTg60p0bhKqeAv1xmZ2M6Iv17JkWwrr2/O5ZfUyv9kaydH8sEv+dwS50uXSB1KhYLuH56h0OI6QXcK1/JU/0DahWnJKrbz7YFiPtyV757wPzpAw0vXB9ItSkdeqYM5O/J5ZaiZXp+kkllsZ2bfAB6smLv4kxtd+V6zSuz0/DjV3Yab43x5qLuJSJOak3k23tmex7qkypNd/yZ6ZvUPJCZQTXKujTXHK7PT1IaPRskzAwIY2dIHhQIWHSymY5iWLxIKWX6khAFNDcy9KcRdfmrFXMfDPj9Lco4rc0+pFTKLXceksNxRbQI4nV7HK6++QnJyMu+9+16d2ghQXlSGrSIbT2leMbbyyqxB2SfSWf78Vx7lnU4nTpurTRdLuN7+husIa92IM3uT2frJ6qobdTrdwfjCoWKlWkXbkV3JT82hMCO/6noXse2TtThsdqI6NqmyLLRlFNYyKxlHXJ995/G9yT6RzrnEVCLbNyF138labWPlSwvcWYuq03Vif84eOM2+pb/Uut113cal9vNCAx8bS0hMON/Pmoe1rPLzPLJuX5WyTocDezV5G/1C/Gk1uAOLf5NDmIofLeNen0xm8jl+eucHj2XGsAB0fgZGPX8bfqEB5JxIZ+f8n9yfZ/rhVDrccB3+EYHkn80lultzbBYbualVe+R+If70uGsQ699aiqWk8vzhdEJRVgE4FditdkpyCqusK0RdNJgAW1Oi8Yd7mBje3IcHlmVyOs/GuDgf5t4UyqD/ppFVUnnymNU3gNe25vH3dbk09VdRXvGfvKaE6xolfHZTCJtPlvG3H7MIMKh4dZjZow1vbcvj7e15rLkngpc357HpRCnOCyYDHtHCwBN9Anj8xyz2p1vp2VjLnFEh3LYgncRMS60SrtfkpesDifJXc8tX5yi0OPlb+GYC0wAAIABJREFUH386Rej4IsF1MticUkrrOaeYPcRMfrmDN7a4hohtFwwZ/ny6jJ9Pu3o8n+29yEnECVarFZutdsOpv5WwZIf73xt/c7L8LYVCQbPrWnJwlWt4uLYJ1y/UuGtzSvOKyTvjeULtOK4HXSb0BWDFi9/UKUH9pYKSb5CR0oo2mqNDaD20E4tnzqPdyC74Btd+bulLbUNj0BLTtw37lu5g3Gt3o/XRkbo/hV1fbvLovf2ebdRmubuc1YbdaqvxGPoE+hHSMoqtn6ypsqzNsE6c2HGUouyq3zunE+wWGw5r1e9cUWYB4a0bs+3TNRTnFNLhxusY9cIEvnv8v9gsNjKPpXF4bQLj59yHrdyKWqdh1eyFVZJDKBQK+k8fyfEth6r8CLKVW1kw7WMAMo+lsfqV72p1XIS4mAYTYGtydycjM1ZkcSjD9R9mfkIRSTk2ym2e/9mXJpbwfUVC81N5lb+ya0q43jvagEGtYPamXOwOJ9mlDv6xMZfvbw931+FwVqa3czqdFUGrcvt3dTLy4a58dp5xnfw2JJexLrmE0a18SMy0/O6E674aBWNa+zJ6/ll3EoPn1+cwJNbgLuN0gs3p+hunZ2Cti/Lycp6c+eTlrVxHHcf1QKlRcXzTAY/3a5tw3eDvQ88pg9n11WacTs/liWsTSNmdRGy/NgydeROL/zqX0gLXiELXCf2IG9nZXTb3VFaVnvVFVaRIUigV9H1oOHu/3UZxVgFORcWHUGH0ixMxNw2tbM+ahCqJEy7G3CQEtVZNcNMwtny0GpVGRc97BjHosRtY/fK3tWtnPdr8/o81llEqlfR7aDhJWxIpOFf1+n9sn9ZsvSBz0oVs5VYWP/FZtcv2frudvd9ud7/e9vEabnv/AaI6x5Cy8ygR7ZrQZlgn1r+1lNzTWUR3jWXAjDEsmTmP0rzKjE9tR3XF12xk7asSPIX3XRMB1lejwF+v5ESOZ3Ly7aeq3mS0L6P6X/Y1JVwPN6o4XWDDfsGv899uryaRRjUvDDIzvUdlKj2NUsHq46XuNvyehOshfirUSldS+POsDkgr9GISWy9rN6orcaO7sfKFr3FUDO/WJeG6T6AfI569ldO7j5G05VCV+s9fq4v/egvRXWNp3K0FRze4hjTjF2whfsGWy2p3cVYBBrORuBGdUSiUHLqw951ZOQy94sVvLqt+AK2PHpvFxoY5y929zA3vLGfC+w9g8PehNL9ulxe8TalWMeDh0eiMBja8vazKclN4AL7BJrKSLu/pAIVC4f4B5bA7KEjLwRjsugTSdlQXDq3ay8mdrjuX96fl0KhjM5r3i2P/D7sA8I8y02VCX1b/61uPIW4hvOWaCLDFVieFFgcxZg1niyqDSc/GehLOllN2QS/Waqt++KqmhOvnCu009lejUircQTbGrKm2LtewcNU7MtMKbXyxt9Bj2PXCbfzehOtZxXZsDmgSoCGpIvhrVQqiTFXrcKLwSiq7+qJUKelxz/VEd2/Oyhe+Ju+Ca2W1TbgeHBvGkCduJnl7Ir/M/8mj/l5Th5CdlM7Rn/a731NwwYfxO2UcTcVgMtBz8mCWzPoch8OBWqumUaembPh31eByOYqzq78pyel01mmo+0rQm3wY/LcbcToc/PjSwmoDWGCTUIpzCikrqNtjTAAT3n+A7f9dx+n4ZKjoKZsigijMSoCKO5N/e0wcTicqnev/hlKlYMD00Rxem0D64dRqtiBE/btm7iJeuL+IZwcG0j5Mi79eyT2djfxndBCqWu5BTQnXfz5dhtXu5LmBAYT6qmgZrOGFQYHV1nUq38aIFj6E+qqIDqgMmPMTCnmohz8Dmxkw6ZR0idSx7f4oOkW4kqL/3oTrRRYnPx4rZvYQM7FmDWF+av45xIxRWzWSns6z0qexgegAzUV/KFyKTqfjtTde46FpD9V53Rrr9jMw8vkJhDQPZ9XshZQVlqA3GdD5uYa6a5NwvXn/OEa9MJF9y3ayb+lO9CYDepMBlcZ1Qi08l0f3O/vTqFMz/EL86XpbX3zMvpzac7z27fTVu+tUadToTQa0vq7P0lpmJXm76zETpVKJKTyAvtNGkncmm7T9KbWqX6FUuNutVCrR6nXoTQY0etfnlZOSSd7pTAbOGI05OpiQ5uEMnDGa5O2Ha/2sbU3bqGk/L9R/+khufnMKap3n9ymoWRjjXruHgvRcNs5ZjkqrqtiG1qOcMdSfkpxiLkat03Dzm1PoP31klWVJ2xLpcff1hLWOwhQeQK/7hmC32jizxxVwT+44QtyorjTuEotvsIm4EZ2JbNuYlF9cz153uKEHepOBgyvi3cfjwu9cXZiMRkaPHU1MbLM6ryv+XK6JHizAG1vzsDvg03Eh+GqUHMywcO+STIpreYNQTQnXLXYnkxdn8M/BZjbcG0lWsZ3Xt+XxbkTVE82rm3N5bVgQG++NZHdaOfd858qms+pYKX7aPJ4ZGEgjk5q0Ahvv/pxPwlnXsHV9JFx/dm0Oz19vZtGkMOwOV1BPOFc16fkXCYV0jNCx4s5w8socjPvyLNmldbggqwCdVotWo61F4boJigklvE0jAMa/PdX9/oWTI9SUcL31kE5o9Fp6TRlMrymD3e/vnLeBAyvjObBiN3arjT4PDsdgMpB5/BwrX1pYp97TTW9Nxtdc+dm0vL4DOSmZ7skHfnr3BwrScxn29C2otWrOJJxg3euLq1wHvhhjqD+3vnu/+3W/aSMAOLgynh3zNgCw+pXF9Ll/KGNm34ndaiNpy6FaX8Ot7TZq2s/zVBoNap36/OVnt6Y9WuAb5EfLge1pObC9+/2U3cdZ9/oS92udQYetvOp39TyFAtQ6NSpN1R+EexZsxemEwX+9EY1By7lDp/nxnwuxV9wQdWT9PvRGA73vH4qPvw95abms//dSck9lARDaKhJjqD8TP/L8wViaX8JX979f02H00KZtHHfccTtPP/n3Oq0n/nwkm44QQtTBpEkT6dK1CzOfmHW1myIauGtmiFgIIRqCZjHN2Lql9pNkiD8v6cE2MF/eGkpcqOew7Bd7i3h7e8Ob8lAIIcTFSYAVQgghvECGiIUQQggvkAArhBBCeIEEWCGEEMILJMAKIYQQXtBgJprw1Sr4dXpjWs85RddIPc8NDGTM/y5vztLaGhprYFa/QIbOS/PqdhpaG66P0fNgd38mLEjnkZ7+mHRKZm+q38TTPe4aiM1qI/6brYx6cSIHV8STsuuYe3lQszB6TRlMUEwYZYWlHNu4n72Ltrunu9MbDfS8dzCNO8dgt9g4sm4fexZtcy9XKpV0vq03ra7vgFqvJSv5HDs+W++Rpq7loPZ0ubU3en8fspLS+fmz9WSfSK/Tfhj8fRgwYwwFZ7PZPne9xzKFUkGX8X1oNaQDKq2a0wkn2DF3Xa1nWTovODaM6x+7gV++3MTJHUerb4fJQLux1xH/9RYcDteEIYHRwdz85pRqy184aUdttnGp/ayN2D5t6Hxrb/xCTBScy2PPt9vc2+nzwDBaD+lYZZ38tBwWPTa3VvWHtoxk7Ow7qrw/97Y33P9uObA9HW/uiW+QkZyUDHbM20DGUdf/q0639KTrhH6XbINGr+HuLx7js0lvEtqqEb2mDK4y2YYQddFgAuy1ZMOUCGZvymVDctVkAw3FK0PNFJQ7eGVzw3u8R63TMOKZ8RzZsI+Nc5ZhDA1g4KNjKMsv4dBq16T5g58YR3F2AUtmfo7WV8dNr9+DKdLMxndc8/y2Hd2V2L5xrHvze0qyC2k7tjtDn7qFRY98it1qp1mvVnSb1I8Nby+jMD2fuBGdGfHMeBZM+xibpXYp+CLaNWHQI6NBoaDgbNW8ol1u7Ut0t1hW/WsRluJyhs66iUmfTuOziW/V+li0G9WVzrf2QaG6+MTRgY2DGfb0LZxJOOEqVzEhV/6ZHL68z5Wr19wklGFP3cI3f/kQAOcFk3bVtI2a9rMmIc0j6DdtBJvf/5FziWeIbB/NoEfGsDRtPjmnMtk5bwO7vtzkLq/Wahj9j0mc2HGk1tswhgVwLvEMa19fXO3ysNZR9Lx3MBvnLCM7OYPYfm0Y/vR4vpn2EdZSCwd+2M3htb96rDP4b+MoSK/fH5ZCXEiGiMUV5x9pJj8tl/ivt1KcXcS5xDMcWb+PyI5NoeKEH9Q0lK0fraYoM9+dRD2mdys0Btczwv4RZvYs3ErG0TSKsgvZNX8jPgG++EcFQUXPZN2b33Mu8QzFOYUkLP4ZvckHH3PtUgMCNO/fhm2frOHkjsNVlmn0GtqN7ca2/1tLzskMyvKL3fP9RnVoWuttNO3Zih+e+4qizOon9jeYDAx/ZjyJq/ey7ZM12K2VyS4cDgdlBaWUFZRiKXH92Dv/uryotNbbuNR+1oa5aQiH1+4jefthSnKLOL75EBlH04hsFw2AzWJzZzWyFJfT/obu5KfmeEx9WRNjqIm81GyPei7MiRvSIpL0I6mcjk+mJLeI/ct2oVApCaz4PtgsNvexKSsopcl1LTCGBrBz3sbL2mchaqPB9GAdTkgrsOFEQbndSXqxZy9j+Z0RfLQrn+VHXCm6WgZr+OGOcFrNOQ3AoknhLD9SzOAYA10idKQW2Pj39jxWHas80fRvomdW/0BiAtUk59pYc9wz3Vd0gIaXrg+kW5SOvFIHc3bk88pQM70+SSWz2M7MvgE8WJEc4JMbXTk+s0rs9Py4MjvHzXG+PNTdRKRJzck8G+9sz2NdUu3bUBMfjZJnBgQwsqUPCgUsOlhMxzAtXyQUsvxICQOaGph7U4i7/NSKZALDPj9LckUGnlIrZBa7glZhuaOaDKug0+t45dVXSE5O5r1336tTGwHKi8qwVaRYK80rxlZemV0l+0R6lbyrTqcTZ0Xy2qgO0aT+ehKbxYZCoaDvA8P4Zf5PtL/hOsJaN+LM3mS2frK66kadTncwvnCoWKlW0XZkV/JTcyjMyK+63kVs+2QtDpudqI5NqiwLbRmFtcxKxhHXZ995fG+yT6RzLjGVyPZNqiTzvpiVLy24ZMLzrhP7c/bAafYt/aXW7a7rNi61nxca+NhYQmLC+X7WPI9sOUfW7atS1ulwYLdX/Wb5hfjTanAHFj/+3yrLNHoN416fTGbyOX565wePZcawAHR+BkY9fxt+oQHknEhn5/yf3J9n+uFUOtxwHf4RgeSfzSW6W3NsFhu5qVV75H4h/vS4axDr31qKpaQySDudUJRVAE4FdqudkpyqSeGFqIsGE2BLrU76z3VdL0k4W87UJZk1rvNbf7nOn6dWZzM9LYv+TfW8NSKY1IJ09qdbiDFr+OCGEF5Yn8O65FLahWp5c0QQRRXJAjRK+OymEDafLONvP2YRYFDx6jCzR/1vbcvj7e15rLkngpc357HpRGlF6jqXES0MPNEngMd/zGJ/upWejbXMGRXCbQvSScysuQ218dL1gUT5q7nlq3MUWpz8rY8/nSJ0fJHgOhlsTiml9ZxTzB5iJr/cwRtbXEPEFyZe//l0GT+fdvV4Lkyt58EJVqsVm612w6m/lbBkh/vfG39zsvwthUJBs+tacvDCnKoVJ7c2wzqh0qo5uCKemD6t8QuqPjFC467NKc0rJu+M5wm147gedJnQFypys9YlzdulgpJvkJHSijaao0NoPbQTi2fOo93ILvgG1z55w6W2oTFoienbhn1LdzDutbvR+uhI3Z/Cri83efTefs82arPcXc5qw2611XgMfQL9CGkZxdZP1lRZ1mZYJ07sOEpRdtXvndMJdosNh7Xqd64os4Dw1o3Z9ukainMK6XDjdYx6YQLfPf5fbBYbmcfSOLw2gfFz7sNWbkWt07Bq9kJ39qXzFAoF/aeP5PiWQ1V+BNnKrSyY9jEAmcfSWP2KJGUXv0+DCbD14X8JhWw84eotLj9SQt8mem5p68v+dAu3xPmyIamU7w650mVtO1XG/8UXMrG9a8iwd7QBg1rB7E252B1Osksd/GNjLt/fHu6u3+GsTCfqdDorglblyeauTkY+3JXPzjOuk9+G5DLWJZcwupUPiZk1t6EmvhoFY1r7Mnr+WU7kuU5Cz6/PYUhsZcotpxNsTtffOD0Da12Ul5fz5MwnL2/lOuo4rgdKjYrjmw54vO8T6EeXCX1YNXsRDofDlXC7mv62wd+HnlMGs+urzVUy2SSuTSBldxKx/dowdOZNLP7rXEorMup0ndCPuJGd3WVzT2VV6VlfVEVKGYVSQd+HhrP3220UZxXgVFR8CBVGvzgRc9PQyvasSah1NhxzkxDUWjXBTcPY8tFqVBoVPe8ZxKDHbmD1y9/Wrp31aPP7P9ZYRqlU0u+h4SRtSaTgXNXr/7F9WrP107XVrmsrt7L4ic+qXbb32+3s/Xa7+/W2j9dw2/sPENU5hpSdR4lo14Q2wzqx/q2l5J7OIrprLANmjGHJzHmU5lWmyGs7qiu+ZiNrX5XgKbzvDxVgT+Z6/vJNybW5c7FGGlWcyPdMAn0it/J1uFHF6QKbO9k6wImcqkmjLyXSqOaFQWam9/B3v6dRKlh9vLRWbahJiJ8KtRJS8irXsTpcyeSvVe1GdSVudDdWvvA1jorh3eKcAvzDzfSeOoRjmw6SlXwOAB+zkeLsIo/1fQL9GPHsrZzefYykLYeq1H/+Wl3811uI7hpL424tOLrBNaQZv2AL8Qu2XFa7i7MKMJiNxI3ojEKh5NCFve/MymHoFS9+c1n1A2h99NgsNjbMWe7uZW54ZzkT3n8Ag78Ppfl1u7zgbUq1igEPj0ZnNLDh7apJ503hAfgGm8hKurynAxQKhfsHlMPuoCAtB2Ow6xJI21FdOLRqLyd3uu5c3p+WQ6OOzWjeL479P+wCwD/KTJcJfVn9r2+rTQgvRH27ZgKsxe5Ed8FdkBF+VZvezOz5XpNANecqruWeLbTTzN8zz2TMBeXPFdpp7K9GpVS4g+zFEpW7hoWr3pGZVmjji72FHsOuSkVlr7emNtQkq9iOzQFNAjQkVQR/rUpBlKlqHU4U1TWxwVCqlPS453qiuzdn5Qtfk3fBtbLUfafoOK4nZQUlbHpvBQChraLQ+mhJP3zGXS44NowhT9xM8vZEfpn/k0f9vaYOITspnaM/7Xe/p+CCD+N3yjiaisFkoOfkwSyZ9TkOhwO1Vk2jTk3Z8O+qweVyFGdXf1OS0+ms01D3laA3+TD4bzfidDj48aWF1QawwCahFOcU1ikn73kT3n+A7f9dx+l4V4J1pVKJKSKIwqwEqLgz+bfHxOF0otK5/m8oVQoGTB/N4bUJpB9OrWYLQtS/a+Yu4sRMC+Pb+RFpUtPYX83jvf2rlLmrox/Xx+gJNKgY28qXsa18WXzANTy0JLGYwbEGxrf1w2xQ0r+JnvsqbgCi4rqk1e7kuYEBhPqqaBms4YVBgdW25VS+jREtfAj1VREdUBkw5ycU8lAPfwY2M2DSKekSqWPb/VHuXnRNbahJkcXJj8eKmT3ETKxZQ5ifmn8OMWPUVo2kp/Os9GlsIDpAc9EfCpei0+l47Y3XeGjaQ7UoXce6/QyMfH4CIc3DWTV7IWWFJehNBnR+rqHuswdScDqdlBWUYAjwJTgmnD73D+XAinj3NbXm/eMY9cJE9i3byb6lO9GbDOhNBlQa1wm18Fwe3e/sT6NOzfAL8afrbX3xMftyas/x2rfTV++uU6VRozcZ0Pq6PktrmZXk7a7HTJRKJabwAPpOG0nemWzS9qfUqn6FUuFut1KpRKvXoTcZ0Ohdn1dOSiZ5pzMZOGM05uhgQpqHM3DGaJK3H671s7Y1baOm/bxQ/+kjufnNKah1nt+noGZhjHvtHgrSc9k4ZzkqrapiG55ZoYyh/pTkFHMxap2Gm9+cQv/pI6ssS9qWSI+7ryesdRSm8AB63TcEu9XGmT2ugHtyxxHiRnWlcZdYfINNxI3oTGTbxqT84nr2usMNPdCbDBxcEe8+Hhd+5+rCZDQyeuxoYmKb1Xld8edyzfRg396ez2vDzay6O5yMIgfz9hby3MAAjzJf/lrMX67zp22oljP5Nv66Kptf010n5GPZVmasyGRm30BeGhzIoUwrH+0q4I4OrhtSLHYnkxdn8M/BZjbcG0lWsZ3Xt+XxbkTVE82rm3N5bVgQG++NZHdaOfd8lwHAqmOl+GnzeGZgII1MatIKbLz7cz4JZ8tr1YbaeHZtDs9fb2bRpDDsDldQTzhnqVLui4RCOkboWHFnOHllDsZ9eZbs0jpckFWATqtFq9HWonDdBMWEEt6mEQDj357qfv/CyRG+vv99et47lHGv3YPNYuPoxn0ej3W0HtIJjV5LrymD6TVlsPv9nfM2cGBlPAdW7MZutdHnweEYTAYyj59j5UsL69R7uumtyfiaKz+bltd3ICcl0z35wE/v/kBBei7Dnr4FtVbNmYQTrHt9cZXrwBdjDPXn1nfvd7/uN20EAAdXxrNj3gYAVr+ymD73D2XM7DuxW20kbTlU62u4td1GTft5nkqjQa1Tn7/87Na0Rwt8g/xoObA9LQe2d7+fsvs4615f4n6tM+iwlVf9rp6nUIBap0alqfqDcM+CrTidMPivN6IxaDl36DQ//nMh9ooboo6s34feaKD3/UPx8fchLy2X9f9eSu6pLABCW0ViDPVn4keePxhL80v46v73azqMHtq0jeOOO27n6Sf/Xqf1xJ/PHyZd3aJJ4Xz9a6H7BiIhhPCGSZMm0qVrF2Y+MetqN0U0cNfMELEQQjQEzWKasXVL7SfJEH9e18wQ8Z/Fl7eGEhfqOSz7xd4i3t7e8KY8FOLP6F8vv3K1myCuEX+YIWIhhBCiIZEhYiGEEMILJMAKIYQQXiABVgghhPACCbBCCCGEFzSYAOurVXD88WjUSujRSM/yOyOudpOuiit5HO6443Y+/PgD3njzda9tQwgh/qwaTIBtKMKNKo4/Ho1vNdMP1pcb2/h4ZOm5Gpo3j6Vv/77MmjlLHpgXQggvkAD7J2U0mcjMzKKwoKgWpYUQQtRVg5lowuGEtAIbThSU252kF3umnlMpFfzlOiMT2xnx1ys5km3l9c25/JJa7l7+UHcjE9sbCfJRkpxr470deaw65pp7tn2Ylo9uCObzhCKmdjWhVsCKoyX8Y2OuO3vOoknhdAp3TfLw6/TGgKvMoytc85lqlPBI7wBuifPFR6Nkf3o5L23M5Vi2K3PIfd2MdInQUWxxMryFgYIyJ//Zmc+C/a4gplMrODijsXufjj8eDRU5Xb/aV1Sr43Dew488TExMDE8/9TTlZbVPvi2EEOLKaDABttTqpP/cNAASzpYzdUmmx/KHe5gY3tyHB5ZlcjrPxrg4H+beFMqg/6aRVWJneg8TN7b25dGVWRzPttK3qZ7XhgVTWJ7JtlNlAIT6qmlh1jB8XhrhRhX/HRfKvnMWFh10BbcJC9IJ81OxeWoknd8/Q6nN4ZHd7JmBgbQK1nLHwnQyS+xM6WLivzeHMmxeGqVWV8EhsT7886ccXtyQQ9+mBuaMCmbH6TJS8myU25y0nnOKsa19uaeTkfHfuPKc2i/YRk3H4TybzYbNar2stGVKpZKmzZpSWFB9OjQhhBC/X4MJsDW5u5ORGSuyOJThysYxP6GIpBxX0AK4s6ORWauz2ZPm6s2tPFJCXIiWOzsZ3QEW4KWNuRRaHOSVOVh/opS4kMrMHXaHE8f5hM44sV2QfEanVnBrWz9u+vocJ/Jcvcr/7MhnUns/ukfq2Jzi2kZipoX5Ca6AvfpYCafzbbQK1pJSsY7NgXsbtjokt/mtjz746LLX/fszTxMTG8NL/5h9+Q0QQghxSddEgPXVKPDXKzmR45nEeXtF4NSrFZgNSo7/ZnlSjpV+TfTu16U2B4WWyqhWbnWi09TuZiazXolOrWDBhDB3UHdtW0mQr8r9OqPY7rFeuc2JVkWD8sq/XmXCxAnceONY5rzz7tVujhBC/CFdEwG22Oqk0OIgxqzhbFFlAOvZWE/C2XLKbE6ySx20MGs4k195zTLWrCGtoPprmBfjdFYE3N+MvGaXOii3Obl9YQaJmZU5LZUKqOsordOpqJJT80qy2+0kJibSuvW4q9cIIYT4g7tm7iJeuL+IZwcG0j5Mi79eyT2djfxndBCqij2Yn1DAswMD6RalI9CgYkwrH+7qaOR/v9btLtnsEhulVifj2vgR4qsizM/1G8Rid/LtwSJeHmImLlSLUatkfFs/tj8QhY+mbofxdL6NmEANXSJ1RBhV+F3GI0EPTXuI1954DZ2uakL4WruaUV4IIf7grokeLMAbW/OwO+DTcSH4apQczLBw75JMii2u7uMHOwtwOhS8PTLYfRfxrDXZHtdfa8PmgFlrsnm6XwBP9Q/g090FvLsjH4CXf8rlb30C+e9NIfhpXXcyP7I8ixJr3S6m7j1bzryEQj65MQQF8Ncfs9l0srROdWg1WnRaLVxmjHQ6nZe9rhBCiJpJuro/qYiIcF6a/RKznniS3Nzcq90cIYT4w1H5BwS8eLUbIa68oqIiFAoFDz74AAMHDWTtmrVXu0lCCPGHIj1YIYQQwguumZuchBBCiGuJBFghhBDCCyTACiGEEF4gAVYIIYTwAgmw4rKFtY6ief84r24jtm8cYa2jvLoNIYTwhmtmoonaeLp/AGV2J29vy+fLW8OYt6eAtUl1m8DB266P0fNgd38mLEjnkZ7+mHRKZm+q3+dQe9w1EJvVRvw3Wxn14kQOrognZdcxAO6Y+zB6o6Ha9ZbM+hy71cb4t6cy97Y3at7O3YMIjg0nZddxrKWWGsvXlUavYcDDo8g+mc7Sp+bXe/1/BJ1u6UnXCf0AOL0niTWvLr7aTbpqLvW9F+Jq+EMF2Nq4sY0PUzqbGPfVOa9t45WhZgrKHbyyOc9r27hcix6di6Ji3OK29x5kw1vfk3UiHQBLUTnGiIBa17X5/R/xMft5JbgCWMus/PjPhZTml3il/j+ChO92kPDdDtqP7U5E28a1WKPATMDsAAAgAElEQVTh8g3yY+KHf+GLu9/BWmatxRpCNGx/ugD7Z1de5NmjLy+xUFZweb38vNRs8lKz66ll1Tt78JRX6xdCCG/5QwXY/DIn5RXZy7NK7JRdkFZOp1ZwcEblL/zjj0cD8Pz6HL7a50oIEOKr4rkBgfRvZqDc7mTTiVJe3pRLfplrruFPbgwhs9jOM+tyAJjYwY/pPfwZO/8seWUOBjQ1MPemEPc2pnY1ATDs87MkV6TSK7VCZrGrvsJyx2+T9rjaqtfxyquvkJyczHvvvlfn41BeVIbN5so6VJpXjK28br0Bh81OiwFt6XJbH3RGA+cOnmHzhz9SVuDqSdZmWLLtqK60Gd4Zv2Aj+Wm5/DL/J1L3nax1G0Y+dxuR7ZsA8Mv8n9j/wy6P5Rq9hu53DqRJ9+ZoDDoyjqax7ZPVFGbk13objTo2pftdA/GPMJN/NofkrYm0GNiORY/9P3v3HR5VmT58/Dt9JslMeodAAoQWOpHeqxQpAgoigqAi2FgXddV1XX/qa91dXbFRFxQRUVSQIlVqQHovoYSS3nsy7f1jYMKYIAkQEpL7c11cmnlOuc+ZZO55nnPOc88t1/rliaHFkGiaDW6HwWQg4cgFctNyANj+5a88vOAZLu4/S1i7BsQfigOlgpCoepyLOcnWT1dTp3U40Q/14PSmw7Qc3gG1XsOFPbHsnLuBorzyz7Ed0DCYeyb0wjcikILMPE5tPMzBH2Owl6MMlEqjZuLXM9jw4U+0e7ArxgBPUs8ksWPOr6RfSAVAqVTScsQ9NOnTCr2nO1kJ6exftoPzMaec2wlpWY/osT3wquNDYU4Bx1bt4/DKkvd06NvjCWgYDMCEhc8BcHbHCTb9Z0W5j/NWf++FuN1qVIL9dHfJB9uzv6S6tBVZ7DT56AJDm7jzSGsjo5Y4hoiv5GNUSgXzRwaw53IhfeZdRqVU8GZfH/5fPx+mrXBs68Vf01k5PpD+Dd04kWrmha5ePPZjCplXEvCWuAKafHSBN/v6kFVk4/2tjiHiawur77xYyM6Ljg/H+ftzyj4QO5jNZiyWipXau+rA8hjn/1fkA+oqhVJJox7NWfn3b1AoFfR8ZgjtH+zGti/XAnDwh10c+nEXUUOiCWpap9T6QU3r0HZMF9a8+R2Zl1IJ79SEeyb04seZCxxFBsphzVvfoVBAvxdGltnefEh7/MIDWPn3xZgLimn7QFeihkazc+76cm3fM9SHPjNHsHPOOuJ+j8W3QSA9nxpMcX5RudYvTwyRvVoQNbQ9mz9aSXpcChGdm9Dx0b6c2nTIuY3U2EQO/hDDiPcnsmvhRvZ8vYWRH07iwLIdAHiF+uDXKJgfX1yISqOiy+MD6D59EOveK9+1VmOAJwP/PoaY+Rs59/YyjAGe9PnrcIoLiji2el+5j7XlsA5s+vcK8jNzaTEkmgGvjGbZs3MwF5ppdX9HGnZrzsaPVpJ5KZU6rerTfdogivOLiD8Uh1Ktot8LI9kxex3nd53EO8yfXs8N5fzvp8lJcvyN/PLqYtx8PHjg0ydYNPFjLEXFlPNXxelWf++FuN1qVIK9EYsNbFf+ai1/KIDTPkSLn5uSNzdnONv+328Z/DoxBL1aQaHFTkaBlefXpPPRYD8Ssi3M/j2bvfElH8h2O1jsjv9iL72P8ioqKuLFmS/e/IHeIoVSwfbZ68hLd3wBOLZmH61GdHS22+127Fau2wMqzC5AoVTiGeJNXloOpzYd5tSmwxWKwW6zY79a9aesfWTmozO6YQzyIjU2kR1zKjaXcmSPKC7sOcOpzUcAiD8Ux6EVv9OkT8tyb+NGMTTu14oD3+8k4dhFAI6vO0Ddtg1clkk8cZGMi6mYC4tJOnmZzMtpmAuL0bg5yhBaLTa2fb7W2Rvb+vkaHpj1OAZPt3Jdm27YozmXD53n1GbH+U+/kMLhn3cT2SuqQgl296JNpF9IAWDPN1up37ExddpEcG7nSZoNaMtvs1aRfPIyAGd3nMSnfiDNBrQh/lAcdquNotwCPEN9cPP2IDU2kW+nfeGyfZvNht3u+IOx22zYrDKDq7j71aoE+2eCTWr83FRse8z1kZACiw0/d5WzkHvMxUJi04pp6q9l3vV6oDVAVkLJnc3momJUGlW51828nMaGD5bTpG9r2j3YDbVWzdHVeznwfUw51i6fkxsdvcCW93XANzyAotxCdi/axIU9Z8q1vrufkezEdJfXshPSr7v8zcTg4WskK9H1DvHMhDQ0em2595Gfkesy1JmXmo3NYsPNx1iuBOvhZ6J+h0jGzZ7ufE2hUJS6Fn8j2YklN+zZ7XZykjNx9zGi1qrRmwxk/eFafNblNOq0qu9cfvU/v6XF0Hvo89fhePibuLAnlu1f/io3M4kardYlWLtdUWad8YRsC2kFNrrOvuzseV5d7tpO1IBGboR5ajiSVMxfOnuWeaewHUWtrrWq1qodSfZfPwHgE+bH0Lcf5sLes6SfT74t+9C56zm/6xQn1h8EILJ3S3pMH8yiSR+Xa/28tFxMQT4ur3kG+1x3+ZuJIS8tB88gb8f11Su8QnzIS88t9z7cvD1Q6zTOJOvuZ0KpVpKfXr4vd7mp2cTtiWX9e8udrymUinJdf72WZ7A3+RmOuBUKBcYAL/IzcrAUWyjILsCrjp/LtWfPUF9yU7LhyjVau93uvMSgNxm49+8P0Lh3S46s2luyE/vVP5pa/McjapRaN9HExSwLEd4a2oboCDaq8NA6/pj3xBeTkmflrX6+hJjU+BqU/KOXN3OGl9y0FOyh4s0+3sxcm8bza9IY3syDbvX0pfeRaaZLXQNhXhoifDQVjlGn0/Hu++8yddrUWzzayqFUKlGqFCiUChQKBUqV499VoW0iGPb/JuDfMBiVRoXe0x2FQoG1AjedXN2mQuHYj1KlQKks+XVtM6ozvZ8fhrufCbVOg8FkwFxU/seFYrccpV50AyJ7tUBvMlCnVX1a3HdPBc7CjWM4tfEwre/vRHDzMPQmA80GtiG0VUSF9qHWquk6dQDufiZMQV50mzqQS/vOOXuvN3ovTm8+SkhUGM3ubYvBZMAU5MWQf46l5bCKHWuHR3rhGx6IwdON9uO6o9apubjvHADH1uyl48TeBDYJRW800KBzE5oNbMuxX/cDoPd0Y8QHk2jQrRkqjRqdux6VVl3q/SrIcvTWG3ZvhsHLHXcfY6k4uk+/l5EfTEKtq/jf1VXt27djwMD+N72+EOVV63qw+xOKWHAghy+H+aMA/rI6jd/OF2C12Xl0eTKv9/Jm1cOOuxl3XSx03jGsVMCHg/z44XgeMVduUnplXRrvDfBlyKIE0gpKLrguPJBDq2Adv4wPIrPQxvCvXdtvSAE6rRatpvxDiXfSg188icHTzfnzpG/+CsCyGXPJupxO3K5TGP1M9P7LfehNbmTHp7P1szUuw85/xjPUh1H/nuz8uU6bCKIf6kFBVj6LH5sFwO9f/0bHiX0Y/s4ElGolaeeSWP/ej+U+hoyLqWz4109Ej+tB5yn9SItL5uDyGJr2b13ubdwohpMbDqHz0NPzmcFo3fVc2HOGE+sOoFSX/3ttdlImWZfTGf7OBFRaFRd+j2XnvA3O9hu9F7kpWax5axkdHu7JPeN7UJxfzNntxznyy94y93c9JzccoveM+3D39SAlNpE1b32HudCRIA/+EAM26PXMEOddxFtmrXL23PMzcln/3nLuGd+Drk8MID89l7M7T3B601GXfdisdrZ8upp7Hu7JPQ/35PDPv7Pvu+0uy6g0GtQ6dZmjUOX1wIMPkJCYyNo1v978RoQoB6kHK0Q1Vad1OF0e71/qhqA76epjOt9O/5LclPI/AlVd6XQ65s6fw38//oRdMbuqOhxRw9W6IWIhRO1Vr359ioqK2Le3/HdQC3Gzat0QsRCi9jp18iSTJ02p6jBELSFDxEIIIUQlkCFiIYQQohJIghVCCCEqQa1LsDq1goltjYSY5PJzZXP3M9F8UDvU2pp/rn3DA4nsXf5pFu9GgU1Cadi9WVWHcUfUi25ESMt6VR2GuMvVqAT7t+5ezOjiCcDXowPp16B0YfGOdfS82sObR1p7VEGEt8eP44LoEuaY4CJ2Rhgm3e1/G+8fNZL5C+YyZ95s5sybjX+Av0v7sHcedn4ATV46E627rtQ2mg1oQ8eJvQluEXbb47td/BoEMua/j1G/Y+QtbafdmK50mzoAd9/b+3ul0WuYvHQmSpWCoGZ1GfH+xNu6/Yrso8OEXnSfPgiNoXo+n92gS1NG/WcyE7+ewcgPJ93Se9rj6cF0mXL7J6Oo2y6CIW+MA6Dt6C50nNjbpb1zly7Ov7kFC+fTrHnt+EJTU9X8rsUfbLtQyFMrU9h9qfxVU2ojpUrFhvUb+OqrxTe9jcM/7yblTAKXD5y7rbHdLlGD2tFmdBcUqlufmm/HnF8xrvQmL6380yDebbbMWo2bjwfmgvLPmHWn+DcMptu0gWyZtZrE45cIaRFGr2eG8FP8ImeRgopY9foSrOabq2Z1K3Zs386O7Y7JNd56+02X2cvE3afWvXtWm501pwtIr8jMSuKmFOYUcD7mVLWtjFK/Y2NW/H2xc87cW5GbllPji8NnXk4j/nBcOZa883zq+3Ni3SHO7jhBfkYusVuOkXwqnpComxs9ST2bSMbF1HIsKcT11age7J8VXAc4+WxdVEpHb2XE4kQOJ5V8E//8Pn+UCmgVrCMj38q2uEJGNnfnfIaFScuTySq04aZR8koPL+6NdEOhgGVH82gVqGXhgRxWnsxHqYCnOnoytoUHHlolm88VkFbgKAD9+kbHNIGtg7S81N2bqEAtqXlWvjuSx2e/Z3F17vW6nmr+0cubtiE6bHZYezqf/9uc4XIsyXklxxafbXGW4LtWv/79eODBMbz91tucPXP7e5D56XlYix3f8HNTs10mjw9sEuocBjMXmlk44T8u696o0DiAKciLzlP6E9gklKKcQvZ9t51uUwew+PFPKcjMQ+dhoNOk3oRFN8RabOXE+gOENA/j8C97nIW+G/WIotXwDrj7m8hOzGDfkm3E7Yl1xrHqjW+xXSnQfbMmLXne2ctIOnGZla+V9PiHvj2es9uOU699AwIah5KbnM2eb7e6FCIP79SYtmO6YAzwIv18Eud2nqJRryh+eH4+XCk0kZuaDXYFVrO13JP8V8SN9tH6/o60e6AbABf3neHXd0pq0frUD2DQPx4g8fglQlvU48SGQwQ3rYMpyJvdizY7CyHcqLi9T5g/nSb3xb9hEHlpuexbup2ezwzm6ymfUJhdgFKtou2YzjTqEYVGryX1TAI75290JsGT6w/xR3abDWsFvtxd+3sLcOCHnexdsg3KWXheoVTQ+v5ONO3XGo1By8V9ZynIzkeBnR1zHdNbWoqsFGTmAVCcV1ju+sji7lSjEuyfFVwHaPbfSyiws29a6SLhAGarnUH/i2fJA0EEeqjoOz+eb8YE0q+BG8uO5vJGb29CPdXcvziRnGI7z3fxpHWwjoUHHB9Ik9sZGdnUnak/pRCbYWZwpBtv9PFlyWFHex1PNQvuD+TNzRlMXp5MXU81s4b6k2O2sfBK6bu3+/lwJt3MzLXpeGgVvD/Al34N3VhxIs8Z5+M/lQx5dZ8bX+axWK0WzMXFldZ7vLbg9x+n8ks6cZn5Yz/ALzyIga89UOb6f1ZoPC89lwEvj+bSgXNs/ngleqOBbk8OdFm/59ODQKHgh7/Mx1Jspu0DXfFvFOJsr98xkvbjurH5o5Wknk0kqHldej93Hyv+vthZ0edWkyvA/Ac/BCCyZ1SZNzm1HtmRLZ+uIenDn6jbKpyeTw9mZUoWqWeS8G8UQvfpg9j66Wou7juDb3ggvZ4bSlFuoXN9S5HZeX5TTsez9v99f8sx/9GN9nHwh10c+nEXUUOiCWpa+m9H567nwLKdXN5/jk5T+vLjiwvxbxhEm5GdOLH+4A2L22v0Wga+OppTmw+z/r3l6Ix6uk8b5LKPDo/0wifMn1WvLyE/M4+owe3p//Iovn9urks5v6vcvD3wjwxl25fln2846cRl5o55H64UFSjLnxWejxrSnkY9olj33nIyL6US0aUJnacM4OT6/c71E47EkXDEMQrgUklI1Ei1aojYarP/aRH0/YlFpBXYOJNu5mBSEekFNs5lWDBqFbhrFAxp4s6r69M5l2khNd/KaxvSySos+ZAeE2Xk/W2ZHEwqJq/YztIjeWw6V1J3c2Qzd7bHFbDsaC55ZjsnUs3M3pvNfY1LJmtPzbcSalITalKRnGflwaVJLsm1vDZu2MSTU6dz/vz5Cq97O9isdmz265/sPys0HhIVhlqnZteCjRRm55N5Oc1lgnuDlzuhrcLZ8ulqclOzKcwuIGbeepfE1HxgWw4ujyHh2EXMhWYu7j1L3J5YIjo3qfRjv9axNfu5uO8MxXlFnNlxgjPbj9OoZwsAIntFcfq3I5zdcQJzoZnE45c49NPuOxpfedjtdmxW+3VL3JkLzaSeTSTpdDyWIgvp55NJiU10Fo2/trh9UV6hs7j9VWFtIyjKK2TP4q0U5RWSnZjJjrklxetVGjWNe7dgx9x1ZCVkYC4oZv+yHSiVCoKahJaKR6lU0m3qAM5sPe5Sx/Z2uFp4vjC7gD3fbMVSZKFOG0eFpMa9W7Jn8RZSYhMwF5o5ueEwF/fF3nCbouaqUT3YyuTvoUKthLjMkm/LZhvE55QkWH93FeczXW+MOJ9hwXClslaIUcWARm7EPFHyoaBUKMgqLElEr63PYEp7E6/39qGRr4ajycW8si6Ncxl3/oaLquLuZyQnKQubreS8ZMWXFEN38/bAUmx2DrVxJaFfW4/U3ddIp0f70vr+zs7XlGol52NO35FjuCr7DxWEsuMzCYh0VGty83In8dgll/byVhy6m9youL3B24PsBNdEeG1iNJgMqDRqhrwxDqu55O9NrVVj8HJ3WU+pVtHjqcHojAY2/vvn234s1ys8z5Xfyz++f9kJmah1qtseh7g7SIItp9Q8KxYb1PPScCbdkWS1KgWh1zxPm5Rrob6XmqPJJdd263urScp1JMf4HCvrzxQw9eeSIV6lAq7tGBj1Sj6JyeTfO0CjhP/r68OL3bxd1qnp8tJyMQZ6olQqnUnWM9Tb2Z6fnoNaq8Hg5e5MskqVAmOA5zXbyOHY6n0uw3A3U2j8VplCvP/ws5ez4Hpeei7GYC+Xds9g1+VrghsVt8/PyMH0h/NgCir5uSA7H6vZwi+vL3EO71PG+6k3udHn+WHYbTZWv7EUc2H56w+X1/UKzwPkpefgGexN2rmkkuMI9qqU6+bi7lBrhogVClArHf8AVFd+VpbzCY3cYjurT+fxZl8fGvhoCPRQ8399fTBqSzaw9EgeL3Tzok2wDpNOybiWHnS/piD790fz6BSmZ0IbI74GJWFeGpaMCeTxaJNzmS+H+fNiN2+MWiUmnRKjVkm+ueJ3PPfu04vPPp9F/fr1K7zurXIWSFc4Tva1xdPLI+FIHDaLlY6TeuHm7YF3mB+dH+3rbC/IyufS/nP0eGoQpiAvDF7udJ7cH61byfOZR9fso+XITtRpE4HWXUdA41DGfv6k8zqtQqlAbzKgNxlQKpVo9Tr0JgMavWshb7VOw8gPJl33mtyNNBvYlrrtIhyFyLs0pUGXppzefASA05uP0KhHFA26NkPrpiM4qh4thlasEPq1+g/oR/vo6Jte/3puVNT9Rm5U3P7ivrNo3XREP9QDg8mAZ6gPna55v61mK6c2HqLr4wPwDQ9E66YjsmcLxn4xzfl++YYHMvzdR8hOymDTRytRaVVX3k/XZ3Z9wwMZ9+U0Gve9uUlB/qzw/MmNh4l+qDsBkSFo3XU07deaOq3Db2o/N2IyGhk8dDARDSpn++L2qDU92LEtPHijT8m35mVjgwD45VR+mTdEleXVdem81tuHZWMDsdpg0YEcDiSW9Fbn78vGqFXy+TB/DGrYcLaAJYdzufpRdDnbwqQfkvlbdy9e7OpFTrGNlSfymb+35DGRaStS+Wdvb7Y9Fkq+2UbMpULe2lzxYUO1Wo1Gq0WluvPfoXo+M8TlWufVIuA7Zq/j+LoDN1zfaray5q1ldHmsH6P/+xgFmXnsWfwbvZ67z7nMb7NW0WlKX4a/NxFLsYVja/aSeiaRqzdlno85hdago+PE3hj9TeSm5rBv6XZSTjtuCjMGeDL648ec2+s2zXET1dFVe4lZsNH5ukIBap0alcY18ZbXibUHaD2iE77hgeQmZ7H5419IiU0AICU2gS2zVtHuwW50e3IgaWcTOfTzLhr3aVXh/ZiMRiZOmsii/311U3H+mT8r6l4eNypuby40s/bK+9180JPkpeXw+9e/EdS0Dlcv48f8bzPtx3ZjwMuj0Bi0ZFxIYeO/fnL2Uut3aIS7rweRPVsQeeUaN0DcnljWv7fc+bNSpUClVaNS39yw7Z8Vnj/6yx50Bh19XxiJWqvmwt5YTqw7dEvF4a+nafNmPPTQOP724su3f+PitpFqOreRj0GJVq0g8Zrrsv8e5MvJFDOf/37rz1reSaMfGI1Oo7mliSYqkzHAk8KcAuekBwqFggc+e4INH/7sTKJ3UpO+rYjo3JhVbyx1vjb07fGc/PUAp670WP9IrVXj7mdyub7cpG8r6nWIZO1b31Vo/61atWLmi39l+rSnycq8vTf2VDaFUoF3HV/n4y5cGYod/v5EFj78nyp5lKXns0PIvJzGgWU7oZyF5/UmAyqNymWykZ7PDiEjLoWDP1a8uPtbb7/JN98s4cjh0r8/Y8c+SNt2bZn51xcqvF1x59SaIeI7YUyUB4vuD6SJnwYPrYLBkW70DDew8lR+VYdWYTarlT59+1x3qsSq1vmx/vSYPgh3HyMGk4H2Y7thzi8i9UzCHYvBYDLgVccPg8lAveiGpF9Iq9D6PvUDGPbOBMLaN0Cj1xAQGUKrER04velwhWOJiAjnyJGjd11yBVBrNdz72oO0vr8jWjcdpiAvOk3uy+nfjtzR5OoZ4oObtwemIC+CmtYh40LFJppo3Lsl9/79AXzC/NEYtER0bkLdNhGc3XGi3Nu4dqrE0DqhLjf6XSs8IpxtW7dVKD5x50kP9jZSKuDx9iYmtDHipVdyPNXMe1sy2XWpsBxri4rQGLR0nNSH8A6RoFAQfySOmHkbHBMm3CFh7RvQeUo/dB4Gkk9cZtPHKynMLvkydaMeLFfmpu0wvhfGIC9yU7I5+ssejq3df93layrPEB+6Pt4f/0YhmAuKOLPtOHsWb8FSfOfunm83pitNB7ZGqVIRu+0YO+esdyb48vRgFUoFLe+7h2b3tkXnYSA9LpndX/1G4rGLd+wYRPUiCVYIIYSoBDJELIQQQlQCSbBCCCFEJZAEK4QQQlQCSbBlGNrEnfahpQuICyGEEOVVoxLs37p7MaOLY7q8r0cH0q+BwaX95LN1iZ0RRuyMMFoEasvchptGyYcDfXm1R8WnrPvXvb7O/d8sd62C2BlhqJXQoY6eleODb2l71/PKqy8zb8Fc5sybzfsfvOfSptFrmLx0JkqVgqBmdRnx/kSX9nGzpxPUrG6lxFWVhr49njqtrj/zVfRDPWg/rvsdjel2mLTkeSYvncnkpTPxaxBY1eHctGHvPExIy3oATF46E62765fgd957hznzZjNvwVxeeVUmYBBVr9bM5ATQ+CPH7fKHniq7XB1AvtnGhO+TSc2/9VJm1ZlGo+a/H3/C/n2V90hIt6kDKM4rYteizWW2N+zejOaD2vHTS4sqLYbyCm4ehkql5NLBsqsPad10RF5Tp/VucrWk3oSFz1V1KJXqpRdeAqBN2zYMGza0qsMRonYl2PKKuSjPrdY2rUZ05NBP159tp9mANpyLOUVB1t03aYgQomrUqASbVWin6EqB8dR8K4WWij3iu/D+ADqHOSbnf2drBnP2uFbBmD3cn5OpZtqG6GgVqOVcpoXXNqSzL76o1LbUSvjPIH+CPJQ8ujyF7CLHjCxdwvT8tasXDX00ZBRY+d/+XObuK5kcwWaH+GwLdhQUWe0k5ZX9oP1TzzxFREQEf3vpbxQVlt7/rbDbcUzYYFdgNVvLrAbiW9+fDg/3wquuL1mX09g++1dSYhMBqNM6nAEvj3IuGzXUMQH9shlzybqc7nxo/6rJS2fCNXMV12kdTvRDPTi96TAth3dArddwYU8sO+duoCjP8eVHo9cQPb4n9aIbojHoSD4Vz/Yv17qUrONKYmz3YDdWv/ktqWeSKItfRBDGAE/OxZwqs12tVdN0YBtWvvaNy+tKtYq2YzrTqEcUGr2W1DMJ7Jy/kYyLqc7jbtQjip//tgir2YJ3mB9D3xzPmjeXknzKMZ1jnVb1iX64J57BPmQlpHN223Ea9Yxi2XNz6fvCCBQoCIgMpjA7n8uH4mjUI4qshAzWvvUdlmILE7+ewYYPf6Ldg10xBniSeiaJHXN+dZl28EYMXu50nNiHum3CsZotXNx/ll0LNjnPdXnU7xhJ21FdMAV7k5uazZEVv3Ni/cGS9g6RtBndGc9gHwqz8jix4SCHlu/GZrPd8DivxpGfnof1ysQTuanZd7wykhAVVaOuwX66O4u5VybOf/aXVLbGVawnOvGHZJp8dIHN1xRJ/6OxLTz4aEcmHb+4zJZzBXw0yK/UMjq1gs/u88dTr+CRH5KdyVWjhC+G+bPoQA4dvrjMs6vSeKSNB3U9S77nFJjtdJ8bj9Vm50BCEZOXl12mzmKxYDGbK+VDxlJk5ttpX2Cz2Ug5Hc/a//d9qWWiht7Dti/XsuSJz0g+dZkeTw9xtl0+eJ75Yz/g1KbDHF75O/PHfsD8sR+Qddkx567VbGH+2A/YMmsVqWcTne3XfiB7hfrg1yiYH19cyPK/LkBvcqf79EHO9uZD2uMXHsDKvy9m6fQvyE7McCbya1mtVqxmC39S+51WIzpw6Odd1z2Xkb1bkHD0AgiF6MoAACAASURBVDlJrtMQdnikF4GN67Dq9SV8M/UzEo5dov/Lo1DrHIUBjq7cQ356DtEP9UCpVtHz6SEc+GGnM7l6hvrQZ+YIjq7cwzePf8quhZtoPqidyz5sVis//GUeCqUSN28Pvnt2NhqDhnrRjZzLtBzWgU3/XsGSJz8n6cQlBrwyulRVoOtRKpUMfHU0hTn5fPf0lyyf+T907ga6TR1QrvUBgqPq0e2JgexZspWvp3zCjrnraD+uG2HtGzjam4fRffogDv0Qw+LHZ7HxPyto2D2KNqO7VOg41733A0knLgPw7bQvnPNQC1Fd1agEe6tsdrDY4M9S1rJjuey6VEROsY35+3MINqrw0pecRjeNkjnD/Wnoo2HKjynkFZdszWKHrEIrET4aAjyUHEoqpvvceC5mVXw6uM8//ZwXZr5IcXHVfMgc/H4naeeSKMorZP+ynXgGeztvOrHb7disdrDbUdgdxdBtVtezarPandPQXW2/dt5Zq8XGts/Xkp+RS05yFls/X0PddhHOqi6FmfnojG4Yg7ywWW3smLOOnXPXl4rz5PpDLH78U5candfyDPbGv1Ewsb8dLbNdqVLQYmg0h37c7fK6SqOmce8W7Ji7jqyEDMwFxexftgOlUkFQk1Dnefjtk1VEdG5M/5fuJz8zj8M/lWwnskcUF/ac4dTmIxTlFRJ/KI5DK3532U/yqXgKsgvIjE8nJTaBwuwCshIyXErz7V60ifQLKRRmF7Dnm61YiizUaRNx3ffuWoFNQjF4urNrwQYKsgvIz8hl96JNhN3TCLW2fANczQe24dia/VzYE4u5oJj4Q3GseXMZ6ecdXw6bDWjDiV8PcGbHCYrzikg+FU/MvPU0Hdi6QscpxN2mRg0R3wkpeSU3PxVdGYLWXFMbc0IrD1LzrXhoVXjqlSTnlixvt8NDy5J5rJ2Jz4b6E2JSs/FMPq+sz7ipmq9VKfOaCjCWIkfJMJVGDdye4er8jFzndgHyUrOxWWy4+RgpyMrn5MZDALS8rwO+4QEU5Raye9EmLuw5U6H9tBzegaOr9mI1l31TW0SXpmReSiP9gutIgsFkQKVRM+SNcS7rqrVqDF7uzp8Ls/M5vu4AbUd3YcXLX7l8iXD3M5KdmO6y3ewE15/LIzuxpGdtt9vJSc7E3cdYrnXd/YwYPN148PNpLq9biiwYvNxLDbmXxcPfxPndrsPrqWcTXfZxcd9Zl/aMy+no3PWl6rUKUZNIgr3NNp8r5MkVKXw40Jd3+vvy6A/JzjaVUoHNruCV9Y4PUR+DkoX3B/JAlDvz95e+znm3s9sV2P+kFqbdznWLsLt5e6DWaZxJ1t3PhFKtdF4P1rnrOb/rlHNYObJ3S3pMH8yiSR+XOz53Xw/C2jUgZv7GMtsVCgUth3Vg++xfS7UVZOdjNVv45fUlpJ8veY8VSoXLULMxwJPm97YldssxOjzah1/+/rWzN5+XlospyMdlu57Brj+Xh2ewN/kZuc6YjQFe5GeU7/cpLzWHguwClkz9DJvV5twGV5J1ubaRloNniGvcfg0CHdvOyic3JRuvur4u7d6hPhTlFTprqQpRE9WaIWKFwnHjkfrKEauu/Ky85vP9arsCUCoUqJWOpFgRJ9KKsdnhtQ0ZNPLRML5VSU/C103JqoeDuK+JOzq1Ak+dEp1GQd5N9F6nTpvKu++/i05XfSfEyEnKJLRFfUxBXniGlk4cOUmZeIb4ENA4FHc/ExpDSW9GrVXTdeoA3P1MmIK86DZ1IJf2nXPexdtmVGd6Pz8Mdz8Tap0Gg8mAuaj0h3Xjvi0Z9+U0fMNLP/8ZNfQeTqw/eN0P+bB2DSjOK3Je97uW1Wzl1MZDdH18AL7hgY7HeHq2YOwX05zXP5UqBb2eHcLR1fvY8ukqbGYrbcZ0dW4jdstR6kU3ILJXC/QmA3Va1afFffeU+/xe1eGRXviGB2LwdKP9uO6odWou7jsHV5KlUuX4B6BUKFGqFCiu/F4nnbhMQWYuXZ4YgIefCb3JjY6P9qH/SyNL7af79HsZ+cEk5zXmq05sOEjzQe2oF90Inbue0Jb1GPjqGIxBjmfJj6/dT5N+rWnQtRl6o4HAJqF0fLQvx1fXvqpBonapNT3YsS08eKNPyYf8srFBAPxyKp9nf0klwkfDr4+UTOrQM9zAC129SM230vGL0h+wN5JTbOOva9L4cpg/2+MKOJdpITnXypM/p/BCNy/e7udDUq6VX07l8f2xij/6odVo0Wm1jm8D1dSxNfvwjwxmxPsTKcop4MeXFrmUc0s+Fc/R1Xvp/+IIUCjY/NFKLh1wJIbspEyyLqcz/J0JqLQqLvwey855G5zr/v71b3Sc2Ifh70xAqVaSdi6J9e/9WCoGlVqFSqt2Jpir9EYDDbs244e/zL1u/K1GdGD/Dzuv2x7zv820H9uNAS+PQmPQknEhhY3/+glzoaPX3WZ0F1AoOPjDTuw2O5v/+wsj3ptA/KE4Eo5eIONiKhv+9RPR43rQeUo/0uKSObg8hqb9W193n2U5ueEQvWfch7uvBymxiax56zvnl4YmfVvR+bF+zmWHvj0egLM7TrDpPyuw2WysfWsZnR/tw8gPJwGQcPQC275cW/pcajSodWr+OOhwce9ZYuZtIHp8Dzz8TOQmZ7Fz7gaSTzr+bhKOXeS3WatoO7oz3Z4cSEF2PifXH+DQ8t2l9iFETSLl6mqp1//5Gj/9tKJSJ5q4WXVah9Pl8f58O+2Lqg6lWitPjdLa6OpEE6//442qDkXUcrWmBytcmc0Wnn7mKWw2GxnpGcz86wtVHZIQt+Sd997Bz88XpVLJmdiK3ewmRGWQBFtLvfXm21UdghC31dWpEoWoLmSIWAghhKgEteYuYiGEEOJOkgQrhBBCVAJJsEIIIUQlkAQrhBBCVIJqcxfxpMmT6NSpI6dPnWbWJ5+Sny91N4UQQty9qtVdxCqVir88P4MTJ0+y4qcVVR2OEEIIcdOq1RCx1WrlfFwcnsbyVQIRQgghqqtqlWCFEEKImqLaJdj83DxC69Sp1lVihBBCiBupdgl2w4aN+Af4M2febNTqanMPlhBCCFEh1S7Bdu7SiaysLB6f8gQWi6WqwxFCCCFuSrVLsH6+fpw7c5aCgoKqDkUIIYS4adUuwdpvUEC8fng4g4cOxtPT806FJIQQQlRYtUuwCoUC2588mdurVw/uG3ofubm5dzIsIYQQokKqVYJVq9VENmpEYmLCdZcJj4ggJmYnVqv1jsYmhBBCVES1SbCTJk9i1mefkJmVxZbftpa5jFKpJCysLtu2br/j8QkhhBAVUa2mShRCCCFqimrTgxVCCCFqEkmwQgghRCWQBCuEEEJUAkmwQgghRCWoNgnWXasgdkYYaiV0qKNn5fjgqg6p2vpxXBBdwvQAxM4Iw6S7/W/j/aNGMn/BXObMm82cebPxD/C/7fsQQoiaTGbTrwLDmroxqY2J4YsTqzqU61KqVGxYv4Gvvlpc1aEIIcRdqdr0YIUQQoiapNr0YG12iM+2YEdBkdVOUp5rJR2VUsGT9xh5MMqIp17JyTQz723JYPflImf71GgjD7Yw4uum5GyGhU9iMllz2lE0YP/0Omw+V0DvCDd2xBWgUCjoVFfPmth8Xlybxuf3+aNUQKtgHRn5VrbFFTKyuTvnMyxMWp5MVqENjRKe6ezF/c3ccdMoOZxUxBubMjidZgZgSnsjbYN15BXbGdDIQHahnf/uyuLbw45pHXVqBUefrus8ptgZYQC8tiGdxYccy9T1VPOPXt60DdFhs8Pa0/n83+YMCi0ljysn51mdP8dnW7DZSz/K3K9/Px54cAxvv/U2Z8+cu+3vlxBCiD9XbXqwBWY73efGY7XZOZBQxOTlKS7tT3UwMaiRO4//nELnLy/z0/Fc5o4IwM9NBcD0DiZGNvPg2VWpdPziMp/uzuLd/n7Oa5UAhxOLGfVNIn0auLHzYiEjv0lkRFN36ng6vmeYrXYG/S8elVJBoIeKvvPjcdcq6NfADYBXenrTPkTHQ0uT6Dr7ErsvFTFvZAAGTUmFgr4N3DiUVESnLy7zf79l8M/ePtTzcmy/yGKnyUcXmLk2jSNJxTT56AJNPrrAN4dL5lV+u58Pl7It9JmfwIjFiTTw0dCvoZvLuXj8pxT2xju+WHSfG09ucekEa7VaMBcXY7PKPCJCCFEVqk0P9kYmtDby9C+pHEsuBmDRgVzOpFsoutKTG9/KyAtr09h3JfGsOplPM38t41sb2X6hEIDfLxdxOs1MntnGvvgizqQ7/t+odXzP2J9YRFqBjTPpZg4mFZFeYONchgWjVoFOrWB0cw9GfJPIuUxH7/q/MVmMbeFBdIiOLXGOfRxPKWbRAUfCXHs6n4tZFhr7aYm7so7FhrPHabGVPs7UfCuhJjWhJhWn08w8uDTpps7Xxg2b2Lhh002tK4QQ4tbdFQnWXaPAU6/kXLrZ5fUdVxKnXq3Ax6Ak9g/tZ9LNdKun53bw0SvRqRV8+0CgM6k79q3E113l/Dk5z7UIQZHFjlZFub22PoMp7U283tuHRr4ajiYX88q6NM5lSPF5IYS4m9wVCTbPbCen2EaEj4aE3JIE1rGungMJRRRa7KQV2Gjko+FSVkkiauCjIT779iSmtAIbRRY745Ymczyl2Pm6UsGfltcri92uQHGdurdGvZJPYjL59w7QKOH/+vrwYjdvpv6cUvYKQgghqqVqcw32RpYezuXVnt60CNTiqVfySBsj/x3si+rKESw6kM2rPb1pH6rD26BiSGM3Hm5l5KuDt6dubLHVzndHc3mrrw/NArQYtUpGNfdgx+OhuGkqdhovZlmI8NbQNkRHsFGFh7Yk2345zJ8Xu3lj1Cox6ZQYtUryzWWMJd9A7z69+OzzWdSvX7/C6wohhLh1d0UPFuD9bZlYbTB7uD/uGiVHk4t5dHkKeVdu8Pl0VzZ2m4J/3+vnvIv4hV/TnNdfb4e3NmfwfBdv5o3wx0PruJP5mZWpFU6A+xOKWHAghy+H+aMA/rI6jd/OO+52nrYilX/29mbbY6Hkm23EXCrkrc0ZFY5VrVaj0WpRqe6a71BCCFGjSLk6UabRD4xGp9HIRBNCCHGT7poerLizbFYrfe4dSM/evQD420svk5Is14GFEKK8pAcrhBBCVAK5QCeEEEJUAkmwQgghRCWQBCuEEEJUAkmwQgghRCWQBCuEEEJUghr3mI6bmxvTn5pGo8hG7I7ZzZw5c6s6JCGEELVQjUuwffr1QalS8uQT07BareVYQwghhLj9atwQsafRyIXzFyS5CiGEqFI1LsEKIYQQ1UGNSrA6nY7QOnXIzs2p6lCEEELUcjUmwSqVSubMm41/gD8b1q2v6nCEEELUcjUmwdpsNh6f8gRZWVl06969qsMRQghRy9WYBAtQUFDAuTNn8fX1qepQhBBC1HI1KsFepUBR1SEIIYSo5WpcgrXZAYUkWCGEEFWrxiXYxMQEGkY2RK2ucXNoCCGEuIvUuAS75betZKSnM+uzT5gyZXJVhyOEEKKWUoTVq2+v6iCEEEKImqbG9WCFEEKI6kASrBBCCFEJJMEKIYQQlUASrBBCCFEJJMHWUMFGFRPbGtGr5ZlgIYSoCpJgr+GuVRA7Iwy1EjrU0bNyfHBVh3TTHm5l5NUe3nQO091w2X4NDKybGOL8+U6ch7rtIhjyxjgA2o7uQseJvUstY/B0Y+CrY+g8uU+Z21CqlHR4uCcjPph03f006tGcCQufQ28ylNnu1yCQMf99jPodI8tsv1EMw955mJCW9QCYvHQmWvcbn28hRO0gszHUULP35nAoqYgt5wurOpSbEhxVj17PDAaFguyEtFLtHn4mev9lGB5+RgpzCkq1q7VqOj/Wnzqt6qPRa8rcR9SgdrQZ3QWFquxe/o1iEEKIPyM92Boqo8DKmtMFWGxVHcnNadi9Kdu//JXzMSfKbA9r34CL+88Qs2BDme2mEB+0eg0rX1t83X3U79iYFX9fTG5K9k3FIIQQf0Z6sNew2SE+24IdBUVWO0l5Fpf2leOD+fz3LFaezAcg0k/DioeCaPzRRecyE9saGd/SSLBRxbkMC+9uzWBrXEkvsnWQlpe6exMVqCU1z8p3R/L47PcsxxzKwJDGboxtaWR9bD6PRZvwc1Mxb28O72zNKNcxtA/VsWRMIAD5ZhstP7lUapnu9fS80N2bCG81ZzMs/BqbX6HzcNVTzzxFREQEf3vpbxQVFpUrvqssRVYKMvMAKM4rxG53ne9k+5frsFmshLaqV+b6J9YfwmaxXndoN/NiKus//Om6Q8MAq974FpvFet32G8UAkJ+eh7XYcX5yU7Ox22TeFiGEgyTYaxSY7XSfGw/AgYQiJi9PqdD60aE6nu3kycRlycRmmLm3kTsvdfdm21cJ2O1Qx1PNgvsDeXNzBpOXJ1PXU82sof7kmG0s3J/j3E5jPw3FVgOP/pCM1U6FblTac7mIJh9dICpAy8JRAaXaI3w0fHqfP//YkM76swVEBWj5YKAvucUliaG858FisWAxm28qqSQciSPhSBwAR1btLdX+Z4mvXO3WG3fdb3UfAOve+8H5/99O++KGywshag9JsLdReoENlQLCfTUk5FlZdjSXZUdzne0jm7mzPa7A+dqJVDOz92Yzqpm7S4L10Cp59pdUsotubnzXYgPrdXLe/c3c2XimgO+POXqP2y8UMmdvDg+28Kjwfj7/9PObik8IIWoDSbC30Zl0M9NWpPJgCyN/6eSJTqNk4f5sZu1yXOMLMaoY0MiNmCdCnesoFQqyCl0TaVym+aaT642EGFWcyzK7vHYuw3zd5YUQQtwcSbAVUGy1o7vmjtNgD9fTp1criE0389RKx5BqYz8N348NYuPZQo6nFBOfY2X9mQKm/lwy5KpUwB9HWM03Hpm8aQk5VsI9Xe+qjfCRXwMhhLjd5C7iCjieUsyoKA9CTGrqeqqZ0dnTpb17fQPLxwbRKlCLVqXA102FUgGFZkdv9PujeXQK0zOhjRFfg5IwLw1LxgTyeLTptsWoVIBaCVe/B6iVjn9Xa9AvP55HnwYGRjX3wMegpHs9PVPa3dz+p06byrvvv4tOd/uf/dS569GbDKg0alQaNXqTweUZU41e43hNr0OpVKI3GdCbDCiuHKhKo0JvMqBz17tsT6lWAaBQKpzrKJVKtHodepPB5ZGeG8VQEf0H9KN9dPQtnhUhxN1EytVVgJ+bincH+BAdqiM518aC/Tn8vaeXy13Ej7Y1MrGNER83FecyzHy5J4cVJ/Kc7W1DdPytuxfN/LXkFNtYeSKfd7dmcCUHM6SxG1OjPRnyVcJNxfjRYD8GR7qVev21DeksPuS49ts7Qs/Mrt7U81JzLMXMypN5PNTSSL8F8RXa1zPPPkNERDgvvvhShe8ivpEHP5+Ku4/R5bX0uBSWz1wAQM+nB9OgW7NS6y2a9DHFeUU07tOCrk8MLNW+/v0fifv9NKYgL0Z//Fip9qOr9hKzYGO5Yigvk9HI57M/Z9H/vmL16tUVWlcIcfeSBCtEJWvVqhUzX/wr06c9TVZmZlWHI4S4Q2SIWIhKFhERzpEjRyW5ClHLSA/2LjOjsxcT2rg+UnMsuZiHvkuuspiEEEKUJglWCCGEqAQyRCyEEEJUAkmwQgghRCWQBCuEEEJUAkmwQgghRCWQBHsNd62C2BlhqJXQoY6eleODqzqkMv04LoguYY4ZimJnhGHS3d63UaPXMHnpTJQqBUHN6jLi/Yku7UqVgnZjuzFu9nQm/O9ZBr46Bp8wv9saQ20zeelMQlqWLot3o/dCCFF9SYK9CRsnBdM7Ql9p2w8yqoidEYa7tvxl6u6kDhP7UKdVfda9t5wfX/wf6ReSufe1B3HzrnhFnls1+uPHqNsu4o7vtyK6TR1Ah4d7VnUYQog7TBKsqBB3PxNN+rZiw4c/k3I6nuzETHYv3Eza+WRCWoRVdXhCCFFtSBmVa9jsEJ9twY6CIqudpDyLS/vMrl48cWVi/i+HOYqZp+Zb6fjFZecyI5u5MzXaRIhJzflMC//Zkcn6MwUAtA7WMW+EP/cvTuRcpgWDRsGKh4JZciSHOXsc9WCXjQ2idZAWgIPT6wLwy6l8nv0l1bmP5DwrhRbH48vx2RZs9tKPMvfr348HHhzD22+9zdkz5yp0Hux2yE3NBrsCq9lKfnpJrdrQFvVIj0smNyXLZZ01by51+XnUfyZzcHkMjXpGERAZikKp4OvJn1Cc75izOKBhMPdM6IVvRCAFmXmc2niYgz/GOIu3m4K86DylP4FNQinKKWTfd9vpNnUAix//lILMPKLHdafl8A4A9H/xfgAKsvJZ/Nisch1j9LjuaD30KBRKIro0wVJk5viv+znw/U5nDD5hfnR4pDf+jUKwWSxc2HuGXf/bTFGu4/3U6DVEj+9JveiGaAw6kk/Fs/3LteQkO85NndbhDHh5lHOfUUMdk/0vmzGXrMvpLvHYbDZsltIlCv/svRBCVG8y0UQFKBWOf78+EsxbWzL57VwBdhRYr3wgD2xk4LWePsxYncrhJDMd62r5aJA/Y75N4nhKMQBPRpvo38iN0UsS+UdvH0KMKqb8mMLVHKlSKgj0ULFlcghtZl2iwGLDZi9d0u5GevfpxejRo3j3nfc5f/78bTsHbUd3wSc8gPXvLf/T5Ub9ZzJaNx27v9pM8ql4TIFeJBy7iNVsxRjgyYj3JxIzfyPnYk5iDPCkz1+Hc3T1Xo6t3odSreL+fz3KpQPn2L9sB3qjgW5PDiQgMsSZYBVKBQoF3P/vKexauIlL+8+AXYHNVr46utHjuhM1pD17Fm/l1OYjmIK96f3cEI6t3s/hlb+jNxm4/1+TObH+AEdX7UPrpqXDhN5o3XX88o9vAGg9qhNhbSLY9NFKzAXFtH2gK3a7nZ1z1wOgUChQKKHL4wMoyitkz9e/AWCzln4zJyx8jlWvLyH1bOJNvCtCiOpIerAVcG2is9vtODocJR+WD7c28tnvWey65OilbTxbyPqz+Qxu7OZMsF/syaZzPT2zhwcQ6atm6FeJXNsBtdrszh6pjav7qLiNGzaxccOmmz7W67Hjmhx6PXefc2g46dhF1n/4k7MtdusxYrccAyA7sWQe3oY9mnP50HlObT4MQPqFFA7/vJvIXlEcW72PkKgw1Do1uxZsxGazUZidz855Gxj2zsMlcdhKIrHbbVeSVsW+hSSdvMzhlb8DkHK6gH1Lt9Ny2D0cXvk74Z2akpOcxd4l2wAozM5n839X8tCcp/Cp5096XAqFmfnojG4Yg7xIjU1kx5x1rufKbsdudXRDFfayE+tVliIz5oLbW5FICFG1JMHeRiFGNf/o5cP0DiV1YjVKBWtjC5w/2+zwSUwWX48O5P1tmaQX3GQGrSIFGXl4tC8p4bZz3jpUGhXN722Pb3iAy7KpZ8ouuefhZ6J+h0jGzZ7ufE2hUDiHXt39jOQkZbn0RrPi08vc1q3ISsgo9bO7r+lKjEYyL6e5tJsLisnPyMXD30R6XAonNx4CoOV9HfAND6Aot5DdizZxYc+ZCsdyetNhCrLzb+l4hBDViyTYm2BHAZS+wzc+x8LC/TnM319ynUypcB3e1Sjh5R7eLD+Wx+R2Jn4+nkdCrtV1+3bF1R1VOwnHL9J5Sj+MgV7kJGVSmO1IigGRIVjNrtesreayvzzkpmYTtyfWZZhZoVQ4r33mpeViDPREqVQ6k6xnqPd1Y7paZL2ivEJ8XH72DPYm78o1zrzUbEKiXB+b0brpcPP2IDc5G64UZD+/6xQn1h8EILJ3S3pMH8yiSR+7rGe3K7DfIMTfF2+5qWMQQlRfchfxTbiQZWFgIzcC3FWEeWmcry86kMPUDp70DDdg0ilpG6Jj+2OhtA7WOZf5a1cvsotsvPBrGt8czuFfg/xQKV0/fdPyLRSY7Qxv6oG/u4pAj4p/D+rdpxeffT6L+vXr3+LRusq6nE7c7tP0fu4+/CKCMAV50XFib9y83cu9jdObjxISFUaze9tiMBkwBXkx5J9jaTnsHgASjsRhs1jpOKkXbt4eeIf50fnRvmVuKyc5k/odInHz9sAU5FWhYwloEkrU0GgMJgMBjUNpO6YLJzc6hq3P7jiBu7+JdmO74ebtgWewNz2fHkJKbALpF1IAaDOqM72fH4a7nwm1ToPBZMBcVFw6xqRMQlvUxxTkhWeoT6l23/BAxn05jSZ9W1UofiFE9aby9PJ6vaqDuNucSCnmwRYe/KWLF038Nfx4PA+A2HQLmQU2ZnTx4vkuXnSqq+ez3dnOu4i71tPzfBcvJv2QTE6xnT2XixjbwkiAh8p53ZYrw8jnMy0818mTqdGeFFnsLu3l0SiyES1btWT7tu1kZGSUY43yu7jvLD71/Ike142m/duQnZjBma3H8KnnT+yWowA0G9iW+MNxZQ7tFucXkXDsEi2GRBM9vgcNujXn8sHz7L9yB6/dZufSgXNE9mpB9PiehLVryIEfdhLesTGHV/yOpdDs3Fb6+WQa921F+7Hd8AkLcO7/RkJb1CMvPRc3HyNdpvSjfnQjTm44xOGfd4MdLMUWLh04S+PeLblnfA8a9YwiLS6ZrZ+uwVrs6KknHruIf4NgOj7Sm5bD7kGt07D1s7XkZ+S67Cv9fDLBLcK4Z3xPwjtEErv1OJaikmPw8DMS2asFiccukhIrNzkJUVPIXcSiVooe1x2DtztbZq2u6lCEEDWUDBELIYQQlUASrBBCCFEJZIhYCCGEqATSgxVCCCEqgSRYIYQQohJIghVCCCEqQY2ayemd997B09PEti3b+PrrxVUdjhBCiFqsxt3kZDQaefe9d/jXh/8iNrbic8IKIYQQt0ONGyLOyckhOTkJo8lU1aEIIYSoxWpcghVCCCGqgxqZYHNz86kfXh+lskYenhBCiLtAjcxAy75bxtChQ3jltVeqOhQhhBC1VI26i/iqIUMHsX7dR/lhqAAAD/xJREFUBr5d8m1VhyKEEKKWqpE9WF9ff44fP47Vai3H0kIIIcTtVyMTrEJRo548EkIIcReqkQkWhQK7XZKsEEKIqlPjEqynlxfBwcEkJSZWdShCCCFqsRp1k9M7772DyWjkl5WrSEiQBCuEEKLq1LipEoUQQojqoMYNEQshhBDVgSRYIYQQohJIghVCCCEqgSRYIYQQohJIghVCCCEqQbV5TGfS5El06dIZAK1Wy8QJk7DZbFUdlhBCCHFTqt1jOnq9jnkL5vHwQw9jtUqCFUIIcXeSIWIhhBCiEkiCFUIIISqBJFghhBCiEkiCFUIIISqBJFghhBCiEkiCFUIIISrBXZdg64eHM3joYDw9Pas6FCGEEOK67roE26tXD+4beh+5ublVHYoQQghxXXddgg2PiCAmZidWq7WqQxFCCCGuq1pOlWixWLCXMb+UUqkkLKwui/636M4HKIQQQlRAtZsqUQghhKgJ7rohYiGEEOJuIAlWCCGEqASSYIUQQohKIAlWCCGEqAQ1LsEGG1VMbGtEr1ZUdShCCCFqsWqTYN21CmJnhKFWQoc6elaOD3Zpn97BROyMMGJnhDF7uP91t/NwKyOv9vCmc5jO5fUxUe58+0BgpcV/1d+6ezGji2OWqa9HB9KvgeG276NZ82YsWDifOfNmM2febLp273rb9yGEEOLWVJvnYG9k1q5sZu3KZkp7Ix3q6K+73Oy9ORxKKmLL+cI7Gt+dpFQquXzpMq+8/GpVhyKEEOI67poEW14ZBVbWnC6o6jCEEELUctVmiNhmh/hsC3YUFFntJOVZKrR++1Cdcwj50FN1brj85LYmYp4IpYm/xvmav7uKjwf5cWB6XXZNrcN7A3zx1JecInetgn/28WbHY6EceqoOC0YGUMfT9TtKVqGd7ELH3B2p+VYKLf+/vXuPirLM4wD+nRlAGO4MiIApqKDiJRVdghDxgte2ba0st3Ijsi3bTTvbbastt7Mdt9ZOu52ttsz72SytzEq3ixgGohbiBbmoMILchuswMMBc39k/hgZnRwM88yYz8/2cw2GY3/s+PDP/fM/7zDu/x7GPx5ixcXhvyyZkLlo4qNdIRESuY8gEbI/RgvTN9TALFpxq0CN7b/Ogzi+s02PCPy/hjl2qfo99NDkI9ycFYuXuRpQ3GwEAMqkEW5cPR5vOjPlb6vDLnQ0I8ZViQ2aY7bysGYGYFOGDFbsbMWdzA6o1RjyYFGg39lvfa7D5RAcAYO3+FuRVOy5VC2YLjAYDzCbjoF4jERG5DrdaIjYJgLmfxo9PpIXg4VlBSN9cj/qOvqvkmdE+CJdL8ddcNUyC9bkNh9X4+v5o+HpJoDNZ0NItINRPhtHBXjijMuDFHPU1zbOqqgqPPPzoNZ1LRESuwa0Ctj/TRvggKkAGAIgP87YL2KggL4TLZchfHWN3To9JQLi/DLUaE3YXayGxAKtnBmHScG+06y3YcFiNQ0p+5ktERPY8KmCbugTc+h8VFsXLsWFhGJbtVEHdY932rqHDhNYeAWmb6mxXsJLer9L+uLNPsK8MX1b0YFexdS/aOycHYONiBWa8VXt9XhAREQ1ZQ+Yz2P7IpBJ4SQGpRAIJAC+p9edHUon1b1lvKP5Yl1zWb6K+04R2nYAPi7UoVhnw0rxQW62w3oDmLjNezlQgOsgLCj8pXpwbivcu+87tH5KD8K9bwhEVKIOftwQKPyl6jMKgX0tsbCze/vebmDd/7rW+HURENMS5zBXskdXRCJfLbH+Xrx0FAFi4vQHKNiNeXxqOZQlyh/oLOW14/4zWYbxnv2nF/lVRuHWCPz4r74JZsOCBvU1YPzcUB+6zNrk4XqPDcwfbbOe8mt+OP2eEYt89UfCWASWNBvzus5ZBvxaZTApvHx94ebnM209ERIPE/WBd0OQpk7Fy5d1sNEFENITxEsoFCYKAmJExeG/LJgDAtm3bkf9d/vWeFhERXYZXsERERCJwmZuciIiIXAkDloiISAQMWCIiIhEwYImIiETAgCUiIhKBW31NJ/m+DJiMJpz4IB9L19+Nkv0nUP3DBVtdEReJlKz5UIyJhK6zBxe+LcbJjwpgEaw3UvsG+SHlgQW4YcYYmA1m1J2+iGPbD0HXYe01LJVKMX1FKsbPmwovXx+0KFU4tjUHbdV9O/+MvXkipt+ZioCIIHSo2lG05wiqjp0f8By8fb2xasc6bF25EcPHj0RK1nzsfXLbz/guEhGRM3jMFazXMG8sfu4OqMpr8NHaTTj8xhdImDcFEzOn2Y5JX7MEPvJh2Pf0Dnzx4vuQhwUgNTvTVp+0LAlj0xJxcOOn+OTxzWitakLmM7dD5m3tMBUxLgqz1yxG0e4j2P37TTiz7zjmPnYLwkZFDHgORETkHjwmYIOjw6CpV+PErnx0tWqhKqvFuZwziL4xFui9OpWHBuDY1hxoGtTQ1LXh5J4CxPTWASA4KgxFu/PRdL4e2tZO/LDzW8hD/BEcowAAhMVGoPybM1AWlKNbrUXFd6VoOl+P6MmjBjQHIiJyH261RKzX6mAyWXfH6Wnvgknft6F568VGfPHC+3bHWywWWHq3zhEEAZ8+vcOhLpj6mvnnv/uV4z+1WGAxW485d/CMY1kQYO7dpLa/OfQOB21LB2CRwGw0o7utc3BvAhERDQluFbCn9h6zPf72H5//5LESiQRxv0hAyZcnr3pMbPJ41J66eNX6DUnj0NPehfba1ivW5aEBiEiIQf67Xw94Dia9ER+ueQcA0HyhHl9t+PgnXwcREQ1NHrNE/P9uvC0ZUm8ZKg6fvWI9KvEGJMydjFMfF1yx7hcsx01Z8/HDrjxYLI7dJqVSKWY/vAiVeWXoULVf0xyIiMh1eWTATl6ahMRlM5GzcR8Es+N+riMmjsT8J29D/jtfQdOgdqjLQwOw5IW7UFN4AZV5pQ51qZcMcx67BcMC/XB8e841zYGIiFybWy0R90cqkyL5t/MwatY4HHhxF9rrHJd24+dMxk1Z85D37y/tvl7zo/CxkVjwxHIoC8rw/c5ch7pvkBzz//grWAQB/31pN4w6o119IHMgIiLX5zG76QwL8MOCJ2+DzFuGw28egL7T+t1WiwDotdbHqdnzEZs8Hof/tR+tVU22cw1aPQRBwLj0RKQ+mInCXXlQHimz1Y09RpiNJijiIpH51HLUFV9E4ft5sAjWK1OzwQyjzjCgOQxUUGAgZmeko6y0FMrKq39OTERE14fHBGz01NFY8vwKh+cN3XrsvP8NSGUSZO164orn7n1qO9qqmnDLS79B5IQYh/rxbYdw9sAJJN2dhmnLUxzq1YUVOPjq3n7nMBjJNyVj7brH8Kenn0V1dfWgziUiIvF5TMC6m5Ur78aMpBl48omnrvdUiIjoCjzyJid3EDcmDvl5+dd7GkREdBW8giUiIhIBr2CJiIhEwIAlIiISAQOWiIhIBAxYIiIiEbhVJ6f+NlyPiI9G2upMhIxUoLO5Ayf3FKAyv6/VoV+IP9IeWoSYG0fD0KXH+dxiFH1wBEJvwwiplwyz7klHQsYUSGQS1BQpcWzLQfR09DWJSJg7BTPuTIVvsBwtlY04ujUHrRcbBzwHbrhOROQe3Cpgf0qAIhBL/rwCx7bkoPb0RURNHInZjy6FpqEVLZXWAFz6wgo0lFzCnsc2wV8RhLnrfgldpw5nP/8BAJD827kIGxWBz5//DyyCgJTsBZj9yFJ8/Yp1x5u4lPGYuXI2Dr3+GTobNUhcPB2Ln7sDH655ByaDaUBzICIi9+AxS8SCYMHhN77A+dxidKu1qCwoh/pSC8JGRwK9PYJPf3ocx3fkoqtVi6bz9bh49BwUo4fbxqgprMB3bx5Ae10rNA1qlBwoQlhsX11T34aDGz+FqqwWXW2dOPXJUfgGySEPCxjQHIiIyH241RXsT2243q3WorqwAujdhzV6yigEjQiBqvQSAEAwC6j4rm+pNjgqFKNnxaNo9xHbc7Wnq2yPffyHYfyCqag9qbQ911bdbHss9ZJh0pIkaOra0NmkGdAcwA3XiYjchsc1moicEIPFz6+Al48Xvt+Zi+Le5d/LrdqxFt6+Pqg5ocQ3r37isN/rwmeWY+T0Mehq7cS+Z3ZA12HfqP/G25Ix4640AMD+9R+g6VzdoOdARESuTRYcErL+ek/i56TT9EB5pAwtShVm3TsHzZUqdDZq7I5RHilHTZES4+ZMgm+gHxpKauzq9Wcv4eLRcoTGhGNseiIu5NpvmK6uaUFlXhmMOgOS781ARW4xTHrToOZARESuzeMC1iII0Gt1aKtuhl9wAIbHR6P6+wt2xxi69OhsbEdXWyem/ToFZ/cX2tVNOiO61V2oPV2Fmx/MRGVeKfRana1uNpqh6+hGw9lLGJeeCH2Xwe5O4oHMgYiIXJvH3OSUkDEFKdkL7J6TSCW25V9FXCSW/WUlpNK+t0QikVg3a+39TPXWl+9BSIzisrr1t0WwjpGSvQAJGVPs/wckQG+9vzkQEZH78JiAVde2YPy8qUhcNB3+4UEYkzoB8RmTUZFXAgDoaGhDYGQwUlcvRGBkCCInxGDmb9JxIddaF0xm9Gi6kb5mMcJihyMkRoHZjyyBqqzWdhNTp6ods+5Nx8hpcQiICEbSijTIw/xxqahiQHMgIiL34VE3OY2YOBIp2QsQEh2GjsZ2nNxTAGVBua3urwhA2kOLMGLSKBi6dDiXcwanPjpqazQh85YheVUGxqZNgkQqwaXCChzbfsjuJqeJC6dh6q9vgl+QH5orVDi6NQdtVU0DngMREbkHjwpYIiKin4vHLBETERH9nBiwREREImDAEhERiYABS0REJAIGLBERkQgYsERERCJgwBIREYlgyGxXl5WdhZtvTgUA+Pj44P5VWbYGD0RERK5myDWa8PUdhi3btuC+e+6D2cyAJSIi18QlYiIiIhEwYImIiETAgCUiIhIBA5aIiEgEDFgiIiIRMGCJiIhEwIAlIiISAQOWiIhIBAxYIiIiEQzJVokmkwmWIdVfioiIaHCGXKtEIiIid8AlYiIiIhEwYImIiETAgCUiIhIBA5aIiEgEDFgiIiIROCVgFQoF3tuyCf9843WkpqY6Y0giIiKX5tSv6cTHx+PZ555B9gOrIQiCs4YlIiJyOU5dIlYqKzHM1xc+Pt7OHJaIiMjl8DNYIiIiETg1YM1mAT09PRgzdqwzhyUiInI5suCQkPXOHFCr7cS6x9dBIpGitLTUmUMTERG5DKc3+7/9jtvx2sbXcKKwyNlDExERuQynLhFLpVKEhoai5GyJM4clIiJyOU4NWInEmaMRERG5LiffRWxNWO7lSkREns6pAZs4aSLUajX0er0zhyUiInI5TrnJSaFQ4JW//w0dmg68+/a7zhiSiIjIpTm1VSIRERFZsZMTERGRCBiwREREImDAEhERiYABS0REJAIGLBERkQgYsERERCJgwBIREYmAAUtERCQCBiwREZEI/gcV6jFCIJ2+AgAAAABJRU5ErkJggg==;" vertex="1" parent="1">
          <mxGeometry x="1379.5" y="1550" width="300.84" height="290" as="geometry" />
        </mxCell>
      </root>
    </mxGraphModel>
  </diagram>
</mxfile>
